<?xml version="1.0" encoding="UTF-8"?>
<svg id="_레이어_1" data-name="레이어 1" xmlns="http://www.w3.org/2000/svg" xmlns:xlink="http://www.w3.org/1999/xlink" viewBox="0 0 286.47 184.34">
  <defs>
    <style>
      .cls-1, .cls-2, .cls-3, .cls-4, .cls-5 {
        fill: #f3a08c;
      }

      .cls-1, .cls-6 {
        stroke-width: 0px;
      }

      .cls-7 {
        font-size: 14px;
      }

      .cls-7, .cls-8, .cls-9, .cls-10, .cls-2, .cls-11, .cls-12, .cls-13, .cls-3, .cls-4, .cls-14, .cls-5, .cls-15 {
        isolation: isolate;
      }

      .cls-7, .cls-8, .cls-9, .cls-10, .cls-2, .cls-12, .cls-13, .cls-3, .cls-4, .cls-14, .cls-5, .cls-15 {
        font-family: MaruBuri-Regular, MaruBuri;
      }

      .cls-7, .cls-9, .cls-10, .cls-14 {
        fill: #3a485d;
      }

      .cls-8, .cls-12, .cls-15 {
        fill: #8ccfd5;
      }

      .cls-8, .cls-3, .cls-4, .cls-14 {
        font-size: 17px;
      }

      .cls-9, .cls-13, .cls-5, .cls-15 {
        font-size: 16px;
      }

      .cls-10, .cls-2, .cls-12 {
        font-size: 19px;
      }

      .cls-6 {
        fill: none;
      }

      .cls-16 {
        letter-spacing: -.03em;
      }

      .cls-13 {
        fill: #fff;
      }

      .cls-17 {
        clip-path: url(#clippath);
      }

      .cls-4 {
        letter-spacing: -.2em;
      }
    </style>
    <clipPath id="clippath">
      <rect class="cls-6" x="242.3" y="119.69" width="38.75" height="40.95" transform="translate(58.53 356.62) rotate(-74.99)"/>
    </clipPath>
  </defs>
  <g id="_그룹_18" data-name="그룹 18">
    <g class="cls-17">
      <g id="_그룹_17" data-name="그룹 17">
        <path id="_패스_50" data-name="패스 50" class="cls-1" d="m274.04,132.68c.14-.78.18-1.58.15-2.37-.05-1.19-.31-2.35-.76-3.45-.07-.16-.16-.32-.24-.48h0c-.12-.25-.23-.49-.37-.71-.17-.29-.36-.58-.56-.85-.27-.35-.56-.68-.89-.99-.1-.1-.21-.18-.32-.28-.23-.2-.47-.39-.72-.57-.13-.09-.26-.17-.41-.27-.25-.16-.51-.3-.77-.43-.14-.07-.28-.14-.42-.21-.3-.13-.62-.24-.93-.33-.09-.02-.17-.07-.26-.09l-.08-.02c-.09-.02-.17-.04-.26-.05-.26-.06-.53-.11-.8-.14-.12-.01-.23-.02-.35-.03-.25-.02-.51-.03-.76-.02-.1,0-.22,0-.33,0-.22.01-.44.04-.66.08h-.06c-.11.03-.23.04-.35.06s-.22.08-.34.1c-.23.06-.45.14-.68.21-1.67.61-3.15,1.66-4.28,3.04-.31.37-.6.77-.86,1.18v.02c-.26.41-.49.83-.7,1.27h0c-.37-.2-.74-.37-1.13-.53-.09-.04-.19-.07-.28-.11-.29-.11-.58-.21-.88-.29-.08-.02-.15-.06-.23-.08-.18-.05-.37-.1-.56-.13-.39-.08-.78-.14-1.17-.18-.79-.08-1.59-.06-2.37.04-.79.1-1.56.29-2.3.56-.37.14-.73.29-1.08.47-.43.23-.85.49-1.24.78-.24.18-.48.35-.7.55-.29.27-.57.55-.82.85-.25.3-.49.62-.7.96-1.07,1.68-1.54,3.67-1.31,5.65.05.39.13.78.24,1.15.15.51.35,1,.6,1.47.76,1.41,1.85,2.63,3.17,3.54.32.22.65.42.99.61-.25.23-.5.47-.74.73s-.48.53-.7.82c-1.23,1.59-2,3.49-2.22,5.49-.12,1.07.02,2.16.39,3.17.33.83.84,1.57,1.5,2.17.41.37.87.68,1.36.94.28.16.58.31.88.43.26.1.53.19.8.26.06.02.12.02.18.04.16.04.32.07.48.1l.08.02c.2.03.39.06.59.08.17.02.34.03.51.03.23.01.45.02.68,0,.17,0,.35-.01.52-.03.23-.02.47-.05.7-.08.17-.03.35-.05.53-.09.24-.05.47-.11.71-.18.17-.05.34-.09.51-.15.24-.08.49-.18.73-.28.16-.07.32-.12.48-.2.26-.12.52-.27.78-.42.13-.07.26-.14.39-.22.38-.24.75-.5,1.11-.79.19-.16.36-.34.55-.51.19.47.42.93.67,1.38.03.06.07.12.1.18.26.45.55.88.87,1.29.33.42.7.8,1.09,1.16.13.11.27.21.4.31.28.24.57.46.87.67.18.11.36.2.54.3.28.16.56.34.86.47.2.09.42.16.63.24.29.11.57.23.87.31.03,0,.05.02.07.03.26.07.52.1.78.14.22.04.43.1.65.12.3.02.6.03.9.02.21,0,.41.02.61,0,.33-.04.66-.09.98-.18.17-.04.34-.04.51-.09.94-.27,1.81-.74,2.55-1.39.12-.1.22-.22.33-.34.22-.21.43-.43.62-.66.12-.15.22-.31.33-.47.15-.22.3-.45.43-.69.1-.18.19-.37.27-.56.1-.23.2-.46.29-.71.07-.21.14-.42.2-.64.06-.23.12-.47.16-.71s.08-.46.11-.7.04-.47.04-.7.03-.48.01-.72-.04-.45-.06-.68-.04-.49-.09-.73c0-.02,0-.04,0-.06.31-.08.63-.19.96-.3.09-.03.18-.07.26-.1.24-.09.47-.19.72-.3.11-.05.22-.1.33-.16.24-.12.48-.25.72-.38.1-.06.2-.11.31-.17.34-.2.69-.42,1.04-.67.34-.24.66-.5.96-.79.27-.27.52-.55.74-.86.2-.28.37-.57.52-.87.06-.11.12-.23.17-.35.04-.09.07-.19.11-.28.08-.21.15-.41.21-.62h0c.09-.32.16-.64.21-.96.08-.57.1-1.14.06-1.72-.01-.17-.03-.34-.05-.49-.03-.21-.06-.42-.11-.63-.03-.12-.05-.23-.08-.33-.04-.16-.1-.31-.16-.46h0c-.17-.37-.37-.72-.58-1.05-.07-.11-.16-.22-.24-.34-.15-.21-.31-.43-.48-.63-.11-.13-.22-.24-.34-.37-.16-.17-.32-.34-.49-.5-.13-.12-.27-.24-.41-.35-.17-.14-.34-.27-.52-.4-.15-.11-.31-.22-.47-.33-.18-.11-.36-.22-.53-.32s-.35-.2-.53-.29-.35-.17-.53-.25c-.2-.09-.39-.18-.59-.25-.16-.06-.33-.11-.5-.17-.21-.07-.43-.15-.64-.21-.37-.1-.74-.18-1.11-.24.08-.22.17-.44.24-.67.11-.38.2-.77.27-1.16"/>
      </g>
    </g>
  </g>
  <g id="_일" data-name="일">
    <text class="cls-2" transform="translate(.68 15.2)"><tspan x="0" y="0">일</tspan></text>
  </g>
  <g id="_3" data-name=" 3">
    <text class="cls-3" transform="translate(5.12 83.2)"><tspan x="0" y="0">3</tspan></text>
  </g>
  <g id="_10" data-name=" 10">
    <text class="cls-3" transform="translate(1.49 115.2)"><tspan x="0" y="0">10</tspan></text>
  </g>
  <g id="_1_7" data-name=" 1 7">
    <text class="cls-3" transform="translate(2.09 146.2)"><tspan x="0" y="0">1</tspan></text>
    <text class="cls-4" transform="translate(7.99 146.2)"><tspan x="0" y="0"> </tspan></text>
    <text class="cls-3" transform="translate(9.35 146.2)"><tspan x="0" y="0">7</tspan></text>
  </g>
  <g id="_24" data-name=" 24">
    <text class="cls-3" transform="translate(0 178.2)"><tspan class="cls-16" x="0" y="0">2</tspan><tspan x="9.21" y="0">4</tspan></text>
  </g>
  <g id="_월" data-name="월">
    <text class="cls-10" transform="translate(42.68 15.2)"><tspan x="0" y="0">월</tspan></text>
  </g>
  <g id="_4" data-name=" 4">
    <text class="cls-14" transform="translate(47.61 83.2)"><tspan x="0" y="0">4</tspan></text>
  </g>
  <g id="_11" data-name=" 11">
    <text class="cls-14" transform="translate(46.99 115.2)"><tspan x="0" y="0">11</tspan></text>
  </g>
  <g id="_18" data-name=" 18">
    <text class="cls-9" transform="translate(44.43 145.2)"><tspan x="0" y="0">18</tspan></text>
  </g>
  <g id="_25" data-name=" 25">
    <text class="cls-9" transform="translate(42.8 177.2)"><tspan x="0" y="0">25</tspan></text>
  </g>
  <g id="_화" data-name="화">
    <text class="cls-10" transform="translate(84.68 15.2)"><tspan x="0" y="0">화</tspan></text>
  </g>
  <g id="_5" data-name=" 5">
    <text class="cls-14" transform="translate(89.09 83.2)"><tspan x="0" y="0">5</tspan></text>
  </g>
  <g id="_12" data-name=" 12">
    <text class="cls-9" transform="translate(85.54 114.2)"><tspan x="0" y="0">12</tspan></text>
  </g>
  <g id="_19" data-name=" 19">
    <text class="cls-9" transform="translate(85.61 145.2)"><tspan x="0" y="0">19</tspan></text>
  </g>
  <g id="_26" data-name=" 26">
    <text class="cls-9" transform="translate(84.81 177.2)"><tspan x="0" y="0">26</tspan></text>
  </g>
  <g id="_수" data-name="수">
    <text class="cls-10" transform="translate(126.68 15.2)"><tspan x="0" y="0">수</tspan></text>
  </g>
  <g id="_6" data-name=" 6">
    <text class="cls-14" transform="translate(131.1 83.2)"><tspan x="0" y="0">6</tspan></text>
  </g>
  <g id="_13" data-name=" 13">
    <text class="cls-9" transform="translate(127.63 114.2)"><tspan x="0" y="0">13</tspan></text>
  </g>
  <g id="_20" data-name=" 20">
    <text class="cls-14" transform="translate(125.57 146.2)"><tspan x="0" y="0">20</tspan></text>
  </g>
  <g id="_27" data-name=" 27">
    <text class="cls-14" transform="translate(126.86 178.2)"><tspan x="0" y="0">27</tspan></text>
  </g>
  <g id="_목" data-name="목">
    <text class="cls-10" transform="translate(168.68 15.2)"><tspan x="0" y="0">목</tspan></text>
  </g>
  <g id="_7" data-name=" 7">
    <text class="cls-14" transform="translate(173.72 83.2)"><tspan x="0" y="0">7</tspan></text>
  </g>
  <g id="_14" data-name=" 14">
    <text class="cls-14" transform="translate(168.66 115.2)"><tspan x="0" y="0">14</tspan></text>
  </g>
  <g id="_21" data-name=" 21">
    <text class="cls-9" transform="translate(169.54 145.2)"><tspan x="0" y="0">21</tspan></text>
  </g>
  <g id="_28" data-name=" 28">
    <text class="cls-3" transform="translate(168.05 178.2)"><tspan x="0" y="0">28</tspan></text>
  </g>
  <g id="_금" data-name="금">
    <text class="cls-10" transform="translate(210.68 15.2)"><tspan x="0" y="0">금</tspan></text>
  </g>
  <g id="_1" data-name=" 1">
    <text class="cls-7" transform="translate(216.46 49.2)"><tspan x="0" y="0">1</tspan></text>
  </g>
  <g id="_8" data-name=" 8">
    <text class="cls-14" transform="translate(214.91 83.2)"><tspan x="0" y="0">8</tspan></text>
  </g>
  <g id="_15" data-name=" 15">
    <text class="cls-9" transform="translate(211.6 114.2)"><tspan x="0" y="0">15</tspan></text>
  </g>
  <g id="_22" data-name=" 22">
    <text class="cls-9" transform="translate(210.74 145.2)"><tspan x="0" y="0">22</tspan></text>
  </g>
  <g id="_29" data-name=" 29">
    <text class="cls-5" transform="translate(210.81 177.2)"><tspan x="0" y="0">29</tspan></text>
  </g>
  <g id="_토" data-name="토">
    <text class="cls-12" transform="translate(251.68 15.2)"><tspan x="0" y="0">토</tspan></text>
  </g>
  <g id="_2" data-name=" 2">
    <text class="cls-8" transform="translate(256.03 51.2)"><tspan x="0" y="0">2</tspan></text>
  </g>
  <g id="_9" data-name=" 9">
    <text class="cls-8" transform="translate(256.1 83.2)"><tspan x="0" y="0">9</tspan></text>
  </g>
  <g id="_16" data-name=" 16">
    <text class="cls-15" transform="translate(253.61 114.2)"><tspan x="0" y="0">16</tspan></text>
  </g>
  <g id="_23" data-name=" 23" class="cls-11">
    <text class="cls-13" transform="translate(251.83 145.2)"><tspan x="0" y="0">23</tspan></text>
  </g>
  <g id="_30" data-name=" 30">
    <text class="cls-3" transform="translate(250.67 178.2)"><tspan x="0" y="0">30</tspan></text>
  </g>
</svg>