<?xml version="1.0" encoding="UTF-8"?>
<svg id="_레이어_1" data-name="레이어 1" xmlns="http://www.w3.org/2000/svg" viewBox="0 0 35.13 35.13">
  <defs>
    <style>
      .cls-1 {
        fill: #040000;
        stroke-width: 0px;
      }
    </style>
  </defs>
  <path class="cls-1" d="m28.62,8.81H7.41c-.48,0-.87.39-.87.87v17.8c0,.24.2.43.43.43.1,0,.19-.03.27-.09l4.29-3.4c.15-.12.34-.19.54-.19h16.54c.48,0,.87-.39.87-.87v-13.69c0-.48-.39-.87-.87-.87Zm-4.81,10.93h-11.58c-.3,0-.55-.25-.55-.55s.25-.55.55-.55h11.58c.3,0,.55.25.55.55s-.25.55-.55.55Zm0-3h-11.58c-.3,0-.55-.25-.55-.55s.25-.55.55-.55h11.58c.3,0,.55.25.55.55s-.25.55-.55.55Zm0-3h-11.58c-.3,0-.55-.25-.55-.55s.25-.55.55-.55h11.58c.3,0,.55.25.55.55s-.25.55-.55.55Z"/>
</svg>