<?xml version="1.0" encoding="UTF-8"?>
<svg id="_레이어_1" data-name="레이어 1" xmlns="http://www.w3.org/2000/svg" viewBox="0 0 265.66 162">
  <defs>
    <style>
      .cls-1 {
        stroke-width: 1.18px;
      }

      .cls-1, .cls-2 {
        fill: #f8de84;
      }

      .cls-1, .cls-2, .cls-3, .cls-4, .cls-5, .cls-6 {
        stroke-miterlimit: 10;
      }

      .cls-1, .cls-2, .cls-4, .cls-5 {
        stroke: #fff;
      }

      .cls-7 {
        fill: #f3a08c;
      }

      .cls-7, .cls-8, .cls-9, .cls-10, .cls-11, .cls-12 {
        stroke-width: 0px;
      }

      .cls-13 {
        font-size: 9.41px;
        letter-spacing: -.05em;
      }

      .cls-13, .cls-14 {
        font-family: MaruBuri-Bold, MaruBuri;
        font-weight: 700;
      }

      .cls-13, .cls-15, .cls-16 {
        fill: #3a485d;
      }

      .cls-2, .cls-6 {
        stroke-width: 1.5px;
      }

      .cls-17, .cls-18, .cls-19 {
        font-size: 7.65px;
      }

      .cls-17, .cls-18, .cls-19, .cls-12 {
        fill: #476dac;
      }

      .cls-17, .cls-20, .cls-19, .cls-15 {
        font-family: MaruBuri-SemiBold, MaruBuri;
        font-weight: 600;
      }

      .cls-3 {
        stroke: #476dac;
        stroke-width: 1.28px;
      }

      .cls-3, .cls-11, .cls-5 {
        fill: #fff;
      }

      .cls-8 {
        opacity: .5;
      }

      .cls-8, .cls-9 {
        fill: #8ccfd5;
      }

      .cls-4 {
        stroke-width: .59px;
      }

      .cls-4, .cls-6 {
        fill: none;
      }

      .cls-19 {
        letter-spacing: -.05em;
      }

      .cls-15 {
        font-size: 9.09px;
        letter-spacing: -.05em;
      }

      .cls-10 {
        fill: #bacf7d;
      }

      .cls-16 {
        font-family: MaruBuri-Light, MaruBuri;
        font-size: 9.07px;
        font-weight: 300;
      }

      .cls-5 {
        stroke-width: .84px;
      }

      .cls-6 {
        stroke: #f1a780;
      }
    </style>
  </defs>
  <rect class="cls-6" x="2.4" y="39.54" width="52.71" height="29.53" rx="5.77" ry="5.77"/>
  <path class="cls-8" d="m254.81,106.05h-65.96V10.85c0-5.99-4.86-10.85-10.85-10.85h0c-5.99,0-10.85,4.86-10.85,10.85v15.12H4.52C2.02,25.97,0,28,0,30.49H0C0,32.99,2.02,35.01,4.52,35.01h103.53v39.05H4.52C2.02,74.06,0,76.08,0,78.58s2.02,4.52,4.52,4.52h103.53v22.95H10.85C4.86,106.05,0,110.91,0,116.9s4.86,10.85,10.85,10.85h156.3v23.4c0,5.99,4.86,10.85,10.85,10.85h0c5.99,0,10.85-4.86,10.85-10.85v-23.4h65.96c5.99,0,10.85-4.86,10.85-10.85s-4.86-10.85-10.85-10.85Zm-137.72,0V35.01h50.06v71.04h-50.06Z"/>
  <g>
    <circle class="cls-1" cx="178.71" cy="116.9" r="16.16"/>
    <g>
      <text class="cls-16" transform="translate(176.43 111.52)"><tspan x="0" y="0">3</tspan></text>
      <text class="cls-15" transform="translate(166.16 123.68)"><tspan x="0" y="0">백석역</tspan></text>
      <line class="cls-4" x1="166.63" y1="114.21" x2="191.19" y2="114.21"/>
    </g>
  </g>
  <g>
    <text class="cls-18" transform="translate(160.27 90.92)"><tspan class="cls-14" x="0" y="0">6번</tspan><tspan class="cls-20" x="11.84" y="0" xml:space="preserve"> 출구</tspan></text>
    <circle class="cls-12" cx="163.58" cy="95.74" r="2.63"/>
  </g>
  <g>
    <text class="cls-18" transform="translate(121.57 101.82)"><tspan class="cls-14" x="0" y="0">5번</tspan><tspan class="cls-20" x="11.89" y="0" xml:space="preserve"> 출구</tspan></text>
    <circle class="cls-12" cx="154.29" cy="100.05" r="2.63"/>
  </g>
  <g>
    <text class="cls-17" transform="translate(0 137.01)"><tspan x="0" y="0">그레이스 병원</tspan></text>
    <circle class="cls-3" cx="51.8" cy="135.24" r="2.63"/>
  </g>
  <g>
    <text class="cls-17" transform="translate(67.26 93.94)"><tspan x="0" y="0">스타벅스</tspan></text>
    <circle class="cls-3" cx="102.27" cy="92.17" r="2.63"/>
  </g>
  <g>
    <text class="cls-17" transform="translate(202.14 21.8)"><tspan x="0" y="0">일산 병원</tspan></text>
    <circle class="cls-3" cx="196.83" cy="20.03" r="2.63"/>
  </g>
  <g>
    <text class="cls-19" transform="translate(202.14 92.69)"><tspan x="0" y="0">고양 종합</tspan><tspan x="0" y="9.19">터미널(홈플러스)</tspan></text>
    <circle class="cls-3" cx="196.83" cy="90.92" r="2.63"/>
  </g>
  <g>
    <text class="cls-17" transform="translate(126.35 137.01)"><tspan x="0" y="0">3번 출구</tspan></text>
    <circle class="cls-12" cx="159.01" cy="135.24" r="2.63"/>
  </g>
  <g>
    <text class="cls-17" transform="translate(201.54 137.01)"><tspan x="0" y="0">2번 출구</tspan></text>
    <circle class="cls-12" cx="197.5" cy="135.24" r="2.63"/>
  </g>
  <g>
    <text class="cls-17" transform="translate(14.64 119.42)"><tspan x="0" y="0">마두역</tspan></text>
    <polygon class="cls-12" points="6.65 116.9 12.32 120.31 12.32 113.49 6.65 116.9"/>
  </g>
  <g>
    <text class="cls-17" transform="translate(229.57 119.42)"><tspan x="0" y="0">대곡역</tspan></text>
    <polygon class="cls-12" points="259.83 116.9 254.16 120.31 254.16 113.49 259.83 116.9"/>
  </g>
  <text class="cls-13" transform="translate(10.5 51.31)"><tspan x="0" y="0">더 테라스</tspan><tspan x="-4.02" y="11.29">웨딩 &amp; 파티</tspan></text>
  <path class="cls-9" d="m157.44,45.36s-1.35,3.29-3.16,2.53c-1.8-.76.4-3.77.4-3.77,0,0-3.62.59-3.73-1.6-.12-2.19,4.5-1.37,4.5-1.37,0,0-1.19-3.78.99-3.81,2.18-.03,2.09,3.47,2.09,3.47,0,0,2.44-1.22,3.15.28.71,1.5-1.72,2.48-1.72,2.48,0,0,2.49,1.86,1.03,3.58-1.45,1.72-3.55-1.81-3.55-1.81Z"/>
  <path class="cls-9" d="m154.16,57.15s.02,3.55-1.94,3.55c-1.95,0-1.08-3.63-1.08-3.63,0,0-3.11,1.94-4.06-.04-.95-1.97,3.63-3,3.63-3,0,0-2.55-3.03-.55-3.89,2-.87,3.26,2.4,3.26,2.4,0,0,1.78-2.06,3.01-.96,1.23,1.11-.63,2.96-.63,2.96,0,0,3.01.76,2.33,2.91-.68,2.15-3.97-.3-3.97-.3Z"/>
  <path class="cls-9" d="m7.74,94.8s-.37,3.53,1.57,3.73c1.94.19,1.44-3.51,1.44-3.51,0,0,2.9,2.24,4.05.37,1.14-1.87-3.31-3.34-3.31-3.34,0,0,2.84-2.76.94-3.82-1.9-1.06-3.49,2.07-3.49,2.07,0,0-1.57-2.23-2.9-1.25-1.33.98.33,3,.33,3,0,0-3.07.46-2.61,2.66.46,2.21,3.98.1,3.98.1Z"/>
  <path class="cls-10" d="m161.08,21.51s-2.95,2.86-8.2-2.93c-5.25-5.79,7.89-2.61,8.23,2.37"/>
  <path class="cls-10" d="m160.52,21.95s-4.11-.06-3.73-7.87c.38-7.8,7.42,3.74,4.15,7.5"/>
  <g>
    <g>
      <path class="cls-5" d="m88.62,17.3c.09-.56.12-1.13.22-1.68"/>
      <g>
        <path class="cls-11" d="m74.14,35.58h-.08c-.18-.03-.33-.06-.51-.12l-.7-.41c-.38-.34-.58-.7-.67-1.1-.46-2.02-.22-6.63,6.49-14.75,6.9-8.35,12.68-9.67,15.52-9.71h0c.72,0,1.37.34,1.77.92.21.3.33.63.36.97.3,2.94-.09,8.93-6.18,16.04-6.08,7.11-12.33,8.17-15.51,8.17-.17,0-.5,0-.5,0Z"/>
        <path class="cls-11" d="m94.23,9.91c.57,0,1.08.29,1.39.74.15.23.26.49.29.78.27,2.6.01,8.6-6.08,15.73-6.08,7.11-12.36,8.02-15.19,8.02-.16,0-.32,0-.46,0-.04,0-.07,0-.1-.01-.13-.01-.26-.05-.39-.09l-.61-.37c-.23-.22-.41-.5-.48-.83-.44-1.95-.19-6.41,6.4-14.39,6.88-8.33,12.62-9.52,15.2-9.56,0,0,.02,0,.03,0m0-.84h-.04c-2.91.05-8.83,1.39-15.84,9.87-6.82,8.25-7.05,13.01-6.58,15.11.11.48.36.92.72,1.26l.07.06.08.05.61.37.08.05.08.03c.2.07.39.11.58.13.05,0,.1.01.15.02.15,0,.31,0,.49,0,3.26,0,9.64-1.08,15.83-8.32,6.18-7.23,6.59-13.35,6.28-16.36-.04-.42-.19-.81-.43-1.17-.47-.69-1.25-1.1-2.08-1.1h0Z"/>
      </g>
    </g>
    <g>
      <path class="cls-11" d="m82.33,41.94c-3.44,0-5.83-1.06-6.95-1.69l.17-.39-.26.33c-.27-.17-.88-1.51-.77-1.95.43-1.65,2.33-4.92,10.24-8.31,3.58-1.53,6.86-2.31,9.76-2.31,2.49,0,4.18.58,5.17,1.06.54.27.9.78.98,1.38.04.31,0,.6-.1.88-.88,2.25-3.42,6.46-10.5,9.35-2.65,1.08-5.25,1.63-7.74,1.63Z"/>
      <path class="cls-11" d="m94.52,28.05c2.41,0,4.03.55,4.98,1.02.43.21.69.62.75,1.06.03.22,0,.45-.08.67-.78,1.99-3.2,6.23-10.26,9.12-2.91,1.19-5.45,1.6-7.58,1.6-3.33,0-5.63-1.01-6.74-1.63-.03-.01-.05-.03-.07-.05-.09-.06-.66-1.22-.59-1.49.41-1.57,2.25-4.71,10-8.03,4.03-1.73,7.2-2.27,9.59-2.27m0-.84h0c-2.96,0-6.29.79-9.92,2.34-7.67,3.28-9.94,6.48-10.48,8.59-.16.63.55,2.15.95,2.4.03.02.07.05.11.07,1.16.65,3.62,1.74,7.16,1.74,2.54,0,5.19-.56,7.89-1.66,7.23-2.95,9.82-7.27,10.73-9.59.13-.34.18-.71.13-1.08-.09-.74-.55-1.38-1.21-1.71-1.02-.51-2.78-1.11-5.35-1.11h0Z"/>
    </g>
    <path class="cls-10" d="m85.33,27.05c.39-.06.27-.63-.09-.65-1.27-.05-2.55-.11-3.83-.16.64-.74,1.28-1.47,1.93-2.2.79.18,1.66.19,2.45.14.26-.01.34-.42.06-.48-.65-.13-1.34-.23-2.02-.23,2.24-2.53,4.5-5.04,6.86-7.49.2-.21-.1-.52-.32-.33-.58.54-1.17,1.08-1.76,1.63.09-.56.12-1.13.22-1.68.12-.72.31-1.43.41-2.16.06-.45-.58-.44-.72-.1-.5,1.24-.89,3.24-.59,4.58-1,.95-1.99,1.91-2.98,2.9.25-1.63.53-3.26.73-4.89.04-.32-.42-.31-.51-.07-.7,1.75-.96,3.8-.94,5.68-1.76,1.78-3.49,3.62-5.15,5.52-.04-.69-.07-1.38-.07-2.07,0-.92.16-1.86.04-2.77-.04-.28-.41-.2-.49,0-.64,1.56-.4,3.7.06,5.37-1.98,2.29-3.85,4.66-5.55,7.09-.23-.22-.41-.5-.48-.83-.44-1.95-.19-6.41,6.4-14.39,6.88-8.33,12.62-9.52,15.2-9.56.58,0,1.1.28,1.42.74.15.23.26.49.29.78.27,2.6.01,8.6-6.08,15.73-6.43,7.52-13.09,8.11-15.65,8.02-.04,0-.07,0-.1-.01-.13-.01-.26-.05-.39-.09,2.42-2.71,4.8-5.45,7.18-8.18,1.42.35,3.04.4,4.46.17Z"/>
    <path class="cls-10" d="m86.68,38.18c.3.1.43-.36.18-.5-.9-.51-1.81-1.03-2.71-1.54.74-.29,7.92-3.07,10.54-3.97.23-.08.12-.42-.11-.35-.62.17-4.77,1.38-5.85,1.72.79-1.09,1.6-2.16,2.36-3.27.15-.22-.18-.38-.35-.24-1.15,1.01-2.11,2.39-2.8,3.76-1.94.63-3.88,1.32-5.79,2.07.23-.51.46-1.03.72-1.53.35-.67.81-1.29,1.06-1.99.08-.22-.22-.29-.35-.18-1.05.89-1.67,2.53-1.96,3.91-2.29.92-4.52,1.94-6.66,3.06-.09-.25-.11-.52-.04-.78.41-1.57,2.25-4.71,10-8.03,8.09-3.46,12.69-2.18,14.57-1.25.43.21.69.62.75,1.06.03.22,0,.45-.08.67-.78,1.99-3.2,6.23-10.26,9.12-7.46,3.05-12.5.99-14.32-.03-.03-.01-.05-.03-.07-.05-.09-.06-.17-.13-.25-.21,2.76-1.06,5.5-2.15,8.25-3.25.9.79,2.05,1.43,3.16,1.79Z"/>
    <g>
      <path class="cls-11" d="m70.92,63.5c-.75,0-1.51-.11-2.26-.34-3.32-.98-6.04-4.01-7-7.76-.76.37-1.52.64-2.29.83-.82.2-1.68.3-2.55.3-4.03,0-7.52-2.05-8.89-5.24-1.38-3.2-.42-7.19,2.32-9.92-.76-1.12-1.39-2.45-1.87-3.96-1.51-4.76,1.97-8.28,3.41-9.03,1.4-.72,2.96-1.09,4.65-1.09s3.42.38,5.01,1.09c1.28-3.19,4.01-5.69,7.15-6.54.78-.21,1.59-.31,2.42-.31,2.71,0,5.3,1.15,6.95,3.06,1.39,1.63,2.21,3.88,2.31,6.33.03.77-.02,1.55-.14,2.33.91.21,1.77.5,2.57.89,3.13,1.51,5.45,4.46,6.04,7.69.64,3.47-.76,7.13-3.49,9.11-1.63,1.18-3.7,1.81-5.99,1.81-.17,0-.33,0-.5-.01-.08,0-.16,0-.24-.01.05.43.07.84.07,1.24,0,3.64-1.69,7.08-4.2,8.58-1.03.62-2.19.93-3.45.93Z"/>
      <path class="cls-11" d="m71,22.3c2.41,0,4.82.98,6.38,2.8,1.38,1.61,2.05,3.75,2.13,5.87.04.97-.06,1.94-.27,2.89,1.08.18,2.13.49,3.12.97,2.84,1.37,5.06,4.06,5.63,7.15.57,3.1-.64,6.52-3.19,8.37-1.59,1.15-3.58,1.66-5.55,1.66-.16,0-.31,0-.47,0-.38-.02-.77-.06-1.15-.12.12.69.2,1.39.2,2.1,0,3.28-1.5,6.55-3.84,7.94-.95.57-2,.82-3.06.82-.69,0-1.38-.11-2.05-.31-2.99-.88-5.67-3.71-6.54-7.44-.06-.24-.08-.49-.12-.74-.93.53-1.91.97-3.03,1.25-.77.19-1.57.28-2.37.28-3.42,0-6.87-1.68-8.21-4.78-1.4-3.25-.05-7.19,2.62-9.53-.85-1.1-1.59-2.51-2.15-4.28-1.4-4.41,1.92-7.55,3.04-8.13,1.33-.69,2.81-1.01,4.31-1.01,1.88,0,3.78.5,5.44,1.39.07-.23.14-.45.22-.67,1.14-2.94,3.64-5.37,6.68-6.19.72-.19,1.47-.29,2.22-.29m0-1.5c-.89,0-1.77.11-2.61.34-3.13.84-5.88,3.21-7.34,6.28-1.49-.57-3.06-.87-4.62-.87-1.81,0-3.49.4-5,1.17-1.59.82-5.43,4.7-3.78,9.92.43,1.36.98,2.58,1.64,3.65-2.63,2.93-3.48,7-2.06,10.31,1.49,3.46,5.25,5.69,9.58,5.69.93,0,1.85-.11,2.73-.32.55-.14,1.1-.31,1.64-.53,1.2,3.6,3.96,6.46,7.27,7.44.82.24,1.66.37,2.48.37,1.39,0,2.68-.35,3.83-1.04,2.73-1.63,4.56-5.34,4.57-9.23,0-.16,0-.31,0-.47,2.42-.01,4.62-.69,6.36-1.95,2.96-2.15,4.48-6.11,3.79-9.86-.64-3.46-3.11-6.62-6.46-8.23-.65-.31-1.34-.57-2.06-.78.06-.6.08-1.2.06-1.8-.1-2.62-.99-5.03-2.49-6.78-1.78-2.08-4.59-3.33-7.52-3.33h0Z"/>
    </g>
    <g>
      <path class="cls-7" d="m71.46,36.28c-2.86,2.39-3.51,6.88-1.81,10.2,1.7,3.32,5.4,5.38,9.13,5.53,2.12.09,4.3-.41,6.02-1.65,2.55-1.85,3.76-5.27,3.19-8.37-.57-3.1-2.8-5.78-5.63-7.15-2.84-1.37-6.2-1.48-9.21-.54"/>
      <path class="cls-7" d="m64.41,39.52c2.61,2.66,7.14,2.95,10.31.99,3.17-1.96,4.93-5.81,4.79-9.54-.08-2.12-.75-4.26-2.13-5.87-2.05-2.39-5.56-3.33-8.6-2.51-3.04.82-5.54,3.25-6.68,6.19-1.14,2.94-.98,6.3.19,9.23"/>
      <path class="cls-7" d="m65.33,44.92c-2.67,1.89-3.87,6.35-3,10.08.87,3.73,3.55,6.56,6.54,7.44,1.7.5,3.54.42,5.11-.52,2.34-1.4,3.83-4.66,3.84-7.94,0-3.28-1.39-6.46-3.47-8.42-2.08-1.96-4.79-2.72-7.36-2.36"/>
      <path class="cls-7" d="m59.19,55.51c-4.05.99-8.93-.68-10.57-4.5-1.57-3.64.32-8.17,3.65-10.31,3.34-2.15,7.7-2.19,11.47-.94,3.11,1.03,8.37,4.65,6.04,8.52-.8,1.34-2.58,2.24-3.75,3.21-2.12,1.74-4.1,3.36-6.83,4.03Z"/>
      <path class="cls-7" d="m49.08,37.2c-1.4-4.41,1.92-7.55,3.04-8.13,3.04-1.57,6.84-1.21,9.84.43,3,1.64,5.25,4.42,6.8,7.47,1.6,3.15,1.42,9.64-3.74,8.19-1.76-.49-12.34,3.37-15.94-7.95Z"/>
      <path class="cls-2" d="m70.93,42.86c-.03-1.1-.55-2.24-1.65-2.88-1.1-.64-2.59-.74-3.73-.25-1.52.65-2.27,2.19-2.16,3.66.1,1.3.83,2.62,2.1,3.39,0,0,5.63,2.32,5.44-3.92Z"/>
    </g>
  </g>
</svg>