<?xml version="1.0" encoding="UTF-8"?>
<svg id="_레이어_1" data-name="레이어 1" xmlns="http://www.w3.org/2000/svg" xmlns:xlink="http://www.w3.org/1999/xlink" viewBox="0 0 286.47 184.34">
  <defs>
    <style>
      .cls-1 {
        fill: #f3a08c;
      }

      .cls-1, .cls-2, .cls-3, .cls-4, .cls-5 {
        stroke-width: 0px;
      }

      .cls-6 {
        isolation: isolate;
      }

      .cls-2 {
        fill: #8ccfd5;
      }

      .cls-3 {
        fill: #3a485d;
      }

      .cls-4 {
        fill: none;
      }

      .cls-5 {
        fill: #fff;
      }

      .cls-7 {
        clip-path: url(#clippath);
      }
    </style>
    <clipPath id="clippath">
      <rect class="cls-4" x="242.3" y="119.69" width="38.75" height="40.95" transform="translate(58.53 356.62) rotate(-74.99)"/>
    </clipPath>
  </defs>
  <g id="_그룹_18" data-name="그룹 18">
    <g class="cls-7">
      <g id="_그룹_17" data-name="그룹 17">
        <path id="_패스_50" data-name="패스 50" class="cls-1" d="m274.04,132.68c.14-.78.18-1.58.15-2.37-.05-1.19-.31-2.35-.76-3.45-.07-.16-.16-.32-.24-.48h0c-.12-.25-.23-.49-.37-.71-.17-.29-.36-.58-.56-.85-.27-.35-.56-.68-.89-.99-.1-.1-.21-.18-.32-.28-.23-.2-.47-.39-.72-.57-.13-.09-.26-.17-.41-.27-.25-.16-.51-.3-.77-.43-.14-.07-.28-.14-.42-.21-.3-.13-.62-.24-.93-.33-.09-.02-.17-.07-.26-.09l-.08-.02c-.09-.02-.17-.04-.26-.05-.26-.06-.53-.11-.8-.14-.12-.01-.23-.02-.35-.03-.25-.02-.51-.03-.76-.02-.1,0-.22,0-.33,0-.22.01-.44.04-.66.08h-.06c-.11.03-.23.04-.35.06s-.22.08-.34.1c-.23.06-.45.14-.68.21-1.67.61-3.15,1.66-4.28,3.04-.31.37-.6.77-.86,1.18v.02c-.26.41-.49.83-.7,1.27h0c-.37-.2-.74-.37-1.13-.53-.09-.04-.19-.07-.28-.11-.29-.11-.58-.21-.88-.29-.08-.02-.15-.06-.23-.08-.18-.05-.37-.1-.56-.13-.39-.08-.78-.14-1.17-.18-.79-.08-1.59-.06-2.37.04-.79.1-1.56.29-2.3.56-.37.14-.73.29-1.08.47-.43.23-.85.49-1.24.78-.24.18-.48.35-.7.55-.29.27-.57.55-.82.85-.25.3-.49.62-.7.96-1.07,1.68-1.54,3.67-1.31,5.65.05.39.13.78.24,1.15.15.51.35,1,.6,1.47.76,1.41,1.85,2.63,3.17,3.54.32.22.65.42.99.61-.25.23-.5.47-.74.73s-.48.53-.7.82c-1.23,1.59-2,3.49-2.22,5.49-.12,1.07.02,2.16.39,3.17.33.83.84,1.57,1.5,2.17.41.37.87.68,1.36.94.28.16.58.31.88.43.26.1.53.19.8.26.06.02.12.02.18.04.16.04.32.07.48.1l.08.02c.2.03.39.06.59.08.17.02.34.03.51.03.23.01.45.02.68,0,.17,0,.35-.01.52-.03.23-.02.47-.05.7-.08.17-.03.35-.05.53-.09.24-.05.47-.11.71-.18.17-.05.34-.09.51-.15.24-.08.49-.18.73-.28.16-.07.32-.12.48-.2.26-.12.52-.27.78-.42.13-.07.26-.14.39-.22.38-.24.75-.5,1.11-.79.19-.16.36-.34.55-.51.19.47.42.93.67,1.38.03.06.07.12.1.18.26.45.55.88.87,1.29.33.42.7.8,1.09,1.16.13.11.27.21.4.31.28.24.57.46.87.67.18.11.36.2.54.3.28.16.56.34.86.47.2.09.42.16.63.24.29.11.57.23.87.31.03,0,.05.02.07.03.26.07.52.1.78.14.22.04.43.1.65.12.3.02.6.03.9.02.21,0,.41.02.61,0,.33-.04.66-.09.98-.18.17-.04.34-.04.51-.09.94-.27,1.81-.74,2.55-1.39.12-.1.22-.22.33-.34.22-.21.43-.43.62-.66.12-.15.22-.31.33-.47.15-.22.3-.45.43-.69.1-.18.19-.37.27-.56.1-.23.2-.46.29-.71.07-.21.14-.42.2-.64.06-.23.12-.47.16-.71s.08-.46.11-.7.04-.47.04-.7.03-.48.01-.72-.04-.45-.06-.68-.04-.49-.09-.73c0-.02,0-.04,0-.06.31-.08.63-.19.96-.3.09-.03.18-.07.26-.1.24-.09.47-.19.72-.3.11-.05.22-.1.33-.16.24-.12.48-.25.72-.38.1-.06.2-.11.31-.17.34-.2.69-.42,1.04-.67.34-.24.66-.5.96-.79.27-.27.52-.55.74-.86.2-.28.37-.57.52-.87.06-.11.12-.23.17-.35.04-.09.07-.19.11-.28.08-.21.15-.41.21-.62h0c.09-.32.16-.64.21-.96.08-.57.1-1.14.06-1.72-.01-.17-.03-.34-.05-.49-.03-.21-.06-.42-.11-.63-.03-.12-.05-.23-.08-.33-.04-.16-.1-.31-.16-.46h0c-.17-.37-.37-.72-.58-1.05-.07-.11-.16-.22-.24-.34-.15-.21-.31-.43-.48-.63-.11-.13-.22-.24-.34-.37-.16-.17-.32-.34-.49-.5-.13-.12-.27-.24-.41-.35-.17-.14-.34-.27-.52-.4-.15-.11-.31-.22-.47-.33-.18-.11-.36-.22-.53-.32s-.35-.2-.53-.29-.35-.17-.53-.25c-.2-.09-.39-.18-.59-.25-.16-.06-.33-.11-.5-.17-.21-.07-.43-.15-.64-.21-.37-.1-.74-.18-1.11-.24.08-.22.17-.44.24-.67.11-.38.2-.77.27-1.16"/>
      </g>
    </g>
  </g>
  <g id="_일" data-name="일">
    <g class="cls-6">
      <path class="cls-1" d="m6.85,9.41c-.63,0-1.2-.09-1.71-.27-.51-.18-.94-.43-1.3-.76-.36-.33-.64-.72-.84-1.17-.2-.45-.29-.95-.29-1.51s.1-1.04.29-1.5c.2-.46.48-.85.84-1.18.36-.33.79-.58,1.3-.76.51-.18,1.08-.27,1.71-.27s1.2.09,1.71.27c.51.18.94.43,1.3.76s.64.72.84,1.18.29.96.29,1.5-.1,1.06-.29,1.51c-.2.45-.47.84-.84,1.17-.36.33-.79.58-1.3.76-.51.18-1.08.27-1.71.27Zm0-1.01c.42,0,.81-.06,1.17-.19.36-.13.67-.31.92-.55.25-.24.45-.53.6-.86.15-.33.22-.7.22-1.1s-.07-.77-.22-1.1c-.15-.33-.34-.61-.6-.86-.25-.24-.56-.42-.92-.55-.36-.13-.75-.19-1.17-.19s-.81.06-1.17.19-.67.31-.92.55c-.25.24-.45.53-.6.86-.15.33-.22.7-.22,1.1s.07.77.22,1.1c.15.33.34.62.6.86.25.24.56.42.92.55.36.13.75.19,1.17.19Zm2.03,9.84c-.61,0-1.07-.09-1.38-.29-.31-.19-.47-.53-.47-1.03v-1.77c0-.06,0-.13-.03-.19-.02-.06-.06-.11-.12-.13l-.59-.29c0-.08.03-.19.09-.33.06-.15.12-.22.18-.22.08,0,.19,0,.33.02s.3.02.46.03c.16,0,.31.02.46.03.15.01.27.02.36.02h6.02c.01-.18.03-.48.04-.89.01-.42.02-.84.02-1.25h-5.09c-.19,0-.41.02-.66.07-.25.04-.42.07-.52.07-.11,0-.27-.02-.47-.06s-.39-.09-.58-.14c-.19-.06-.36-.11-.51-.17-.15-.06-.25-.1-.29-.12,0-.21.02-.38.07-.48.04-.11.09-.16.12-.16.08,0,.22,0,.43.02.21.01.45.02.72.03.27,0,.56.02.86.03.3.01.57.02.83.02h4.01c.08,0,.17,0,.29-.02s.23-.02.34-.03c.11,0,.22-.02.32-.03.1-.01.18-.02.23-.02.1,0,.26,0,.46.02.21.01.38.03.52.06.17.03.27.07.3.13.04.06.06.13.06.19s-.02.19-.05.38c-.03.19-.07.41-.1.65-.04.24-.07.48-.1.73s-.05.47-.05.66l-.04.29c.18.04.29.1.33.18.04.08.07.17.07.28,0,.11-.04.22-.11.31s-.23.14-.46.14h-6.82v1.9c0,.19.05.31.16.37s.22.09.35.09h4.75c.38,0,.76-.04,1.14-.13.38-.09.66-.13.85-.13.29,0,.55,0,.77.03.22.02.38.08.47.18.09.1.13.26.12.48s-.07.39-.2.5h-7.9Zm5.95-8.17c-.1-.18-.17-.46-.2-.86-.03-.39-.05-.78-.05-1.16V2.19c0-.13-.03-.22-.08-.29-.05-.06-.11-.12-.17-.17l-1.03-.7c0-.17.05-.31.16-.45.11-.13.2-.2.28-.2.09,0,.23.02.42.07.19.04.39.1.59.16.2.06.39.12.57.18.18.06.3.1.38.14.1.05.17.1.21.16.04.06.06.14.06.24,0,.05,0,.12,0,.2,0,.08-.01.17-.02.27,0,.09-.01.19-.02.28,0,.09,0,.16,0,.21l-.04,5.17c0,.23-.01.47-.04.73-.03.26-.06.51-.09.76-.04.25-.09.47-.14.67-.06.2-.12.35-.2.46h-.57Z"/>
    </g>
  </g>
  <g id="_3" data-name=" 3">
    <g class="cls-6">
      <path class="cls-1" d="m12.43,77.62c.41.23.74.55,1,.97.25.42.38.95.38,1.6,0,.54-.09,1.04-.28,1.5s-.47.85-.84,1.18c-.37.33-.84.59-1.4.77-.56.19-1.22.28-1.96.28-.35,0-.73-.03-1.14-.08-.41-.06-.8-.18-1.17-.37-.12-.07-.25-.15-.39-.24-.14-.09-.26-.19-.37-.31-.11-.11-.21-.24-.28-.38-.07-.14-.11-.3-.11-.47,0-.09.01-.19.04-.3.03-.11.08-.21.15-.3.07-.09.17-.16.29-.22.12-.06.27-.08.45-.08.12,0,.25.02.39.05.14.03.25.08.34.15l.02.07c-.02.23.01.47.11.74.1.27.21.45.33.55.09.08.28.16.58.23.29.07.63.11,1.02.11.46,0,.88-.07,1.25-.2.37-.14.68-.32.94-.56.25-.24.45-.52.59-.83s.2-.65.2-1c0-.31-.04-.61-.14-.91-.09-.3-.24-.57-.45-.81-.21-.24-.48-.43-.82-.58s-.75-.22-1.24-.22c-.09,0-.2,0-.32,0-.12,0-.25.01-.39.02-.14,0-.27.01-.39.02-.12,0-.22.01-.29.03l-.1-.14c.06-.15.13-.3.23-.45.1-.15.2-.27.31-.37.19,0,.42-.01.7-.04.27-.03.53-.07.77-.13.45-.12.83-.37,1.14-.74s.46-.86.46-1.49-.2-1.13-.59-1.49c-.4-.36-1.03-.54-1.9-.54-.4,0-.73.04-.99.13s-.44.17-.54.26c-.03.06-.06.14-.08.26s-.04.25-.05.38c-.01.14-.02.28-.02.42s0,.27.02.37l-.05.1c-.08.09-.19.15-.34.17-.15.02-.27.03-.36.03-.33,0-.56-.08-.71-.24-.14-.16-.21-.32-.21-.48,0-.19.08-.41.24-.65.16-.24.35-.46.58-.66.28-.26.67-.5,1.16-.71.49-.21,1.12-.31,1.89-.31,1.03,0,1.82.23,2.35.69.54.46.81,1.13.81,2.01,0,.54-.08.99-.25,1.33s-.39.62-.69.85c-.26.23-.6.42-1.02.58.4.07.79.2,1.19.41Z"/>
    </g>
  </g>
  <g id="_10" data-name=" 10">
    <g class="cls-6">
      <path class="cls-1" d="m5.64,114.79c.17.03.33.07.48.1.15.03.27.07.37.09.1.03.14.05.14.06,0,.08,0,.17-.02.28-.01.11-.04.21-.08.3h-3.96c-.03-.09-.05-.21-.06-.35s.01-.24.06-.3c.01-.01.07-.03.16-.06.1-.03.2-.06.31-.08s.23-.06.34-.08c.11-.03.2-.05.25-.06.19-.03.29-.1.31-.2.01-.11.02-.25.03-.42,0-.16,0-.33,0-.49v-7.46c0-.23,0-.42,0-.59,0-.17.01-.32.03-.44l-1.75.08c-.05-.08-.07-.2-.08-.35-.01-.15,0-.28.02-.38.11-.05.29-.1.54-.17.25-.07.51-.14.78-.2.27-.07.53-.13.77-.19.24-.06.42-.1.54-.12l.34.12v10.83c.15.02.31.05.48.08Z"/>
      <path class="cls-1" d="m12.86,115.93c-.7,0-1.33-.14-1.9-.43-.56-.29-1.04-.7-1.43-1.22-.39-.53-.69-1.17-.9-1.92s-.31-1.59-.31-2.51.1-1.75.31-2.51.51-1.39.9-1.92c.39-.53.87-.94,1.43-1.22.56-.29,1.19-.43,1.9-.43s1.32.14,1.88.43c.56.29,1.03.7,1.42,1.22.39.53.68,1.17.89,1.92s.31,1.59.31,2.51-.1,1.75-.31,2.51-.51,1.39-.89,1.92c-.38.53-.86.94-1.42,1.22-.56.29-1.19.43-1.88.43Zm-3.26-6.09c0,.81.08,1.52.23,2.15.15.63.37,1.16.65,1.6s.63.77,1.03,1,.85.35,1.33.35.95-.12,1.35-.35c.4-.23.74-.57,1.02-1.01.28-.44.49-.98.65-1.61.15-.63.23-1.34.23-2.13s-.08-1.5-.23-2.13c-.15-.63-.37-1.17-.65-1.61-.28-.44-.62-.78-1.02-1.01-.4-.23-.85-.35-1.35-.35s-.93.12-1.33.35-.75.57-1.03,1-.5.97-.65,1.61c-.15.63-.23,1.35-.23,2.14Z"/>
    </g>
  </g>
  <g id="_1_7" data-name=" 1 7">
    <g class="cls-6">
      <path class="cls-1" d="m6.24,145.79c.17.03.33.07.48.1.15.03.27.07.37.09.1.03.14.05.14.06,0,.08,0,.17-.02.28-.01.11-.04.21-.08.3h-3.96c-.03-.09-.05-.21-.06-.35,0-.14.01-.24.06-.3.01-.01.07-.03.16-.06.1-.03.2-.06.31-.08l.34-.08c.11-.03.2-.05.25-.06.19-.03.29-.1.31-.2.01-.11.02-.25.03-.42,0-.16,0-.33,0-.49v-7.46c0-.23,0-.42,0-.59s.01-.32.03-.44l-1.75.08c-.04-.08-.07-.2-.08-.35-.01-.15,0-.28.02-.38.11-.05.29-.1.54-.17.25-.07.51-.14.78-.2.27-.07.53-.13.77-.19.24-.06.42-.1.54-.12l.34.12v10.83c.15.02.31.05.48.08Z"/>
    </g>
    <g class="cls-6">
      <path class="cls-1" d="m17.32,135.29l-1.79,4.01c-.48,1.07-.96,2.23-1.44,3.5-.49,1.27-.97,2.54-1.45,3.83h-1.5c.17-.43.34-.85.52-1.25s.36-.82.54-1.25.39-.89.62-1.39.48-1.05.75-1.67c.18-.41.37-.83.58-1.27s.41-.87.62-1.29c.21-.42.42-.84.62-1.24s.39-.77.56-1.11l-2.04.03h-4s-.07-.1-.07-.15c0-.12.03-.29.08-.48s.11-.36.17-.48h7.02l.19.22Z"/>
    </g>
  </g>
  <g id="_24" data-name=" 24">
    <g class="cls-6">
      <path class="cls-1" d="m8.3,175.55c.1,0,.21.02.34.06.12.04.23.08.31.13l-.19,2.97c-.15,0-.29,0-.43-.03-.14-.02-.29-.04-.43-.06H.71v-1.07c.42-.33.8-.64,1.15-.93s.67-.56.98-.83c.31-.26.59-.51.87-.76.27-.25.54-.5.82-.76.35-.33.68-.65,1-.95.31-.31.58-.62.82-.94.23-.32.42-.65.55-1,.14-.35.2-.74.2-1.17,0-.83-.21-1.46-.63-1.9-.42-.44-1.11-.66-2.06-.66-.38,0-.7.04-.93.11-.24.07-.42.16-.54.25-.03.08-.07.19-.09.32s-.05.28-.06.43c-.01.15-.02.31-.02.46s0,.29.02.4l-.05.1c-.08.09-.19.15-.32.19-.14.03-.28.05-.42.05-.33,0-.57-.08-.73-.24-.16-.16-.24-.33-.24-.53,0-.22.08-.45.24-.71.16-.26.35-.5.58-.71.27-.26.66-.49,1.17-.7.5-.2,1.13-.31,1.88-.31,1.14,0,2.01.27,2.6.81.59.54.88,1.3.88,2.29,0,.55-.08,1.05-.23,1.5-.15.44-.37.86-.65,1.25-.28.39-.61.77-1,1.14-.38.37-.8.76-1.26,1.18-.49.45-1,.9-1.54,1.35-.54.45-1.07.88-1.59,1.3l2.02-.07h3.52c.04-.14.1-.31.18-.54.07-.22.14-.44.21-.65.07-.21.13-.39.18-.54.05-.15.08-.23.09-.23Z"/>
      <path class="cls-1" d="m16.86,177.71c.15.02.31.05.48.08s.33.07.48.1c.15.03.27.07.37.09.1.03.14.05.14.06,0,.08,0,.17-.02.28-.01.11-.04.21-.08.3h-3.96c-.03-.09-.05-.21-.06-.35s.01-.24.06-.3c.01-.01.07-.03.16-.06.1-.03.2-.06.31-.08s.23-.06.34-.08c.11-.03.2-.05.25-.06.19-.03.29-.1.31-.2.01-.11.02-.25.03-.42,0-.16,0-.33,0-.48v-1.09h-5.53l-.51-.68,6.48-8.06c.24.06.49.09.75.1v7.58h2.28s.05.08.05.14c0,.15-.03.29-.08.44s-.12.31-.2.48h-2.06v2.21Zm-1.19-3.26v-4.37c0-.17,0-.37,0-.59,0-.23.02-.45.04-.68l-4.52,5.64h4.47Z"/>
    </g>
  </g>
  <g id="_월" data-name="월">
    <g class="cls-6">
      <path class="cls-3" d="m48.82,8.99c-.38.04-.75.07-1.09.09-.35.03-.67.05-.96.08-.37.03-.66.06-.88.11-.22.05-.45.08-.68.08-.08,0-.2-.03-.37-.08-.17-.05-.35-.11-.54-.17s-.37-.13-.55-.21c-.18-.08-.31-.14-.4-.19,0-.18.04-.33.1-.46.07-.13.14-.19.2-.19.02,0,.11,0,.25.03.14.02.3.04.47.06.18.02.36.04.55.05s.35.02.47.02h.58c.29,0,.55,0,.79-.02.53-.03,1.16-.07,1.87-.12.72-.06,1.45-.13,2.21-.22.75-.09,1.49-.19,2.2-.3.72-.11,1.33-.24,1.85-.38.05.05.1.17.14.37s.07.36.07.48c-.62.16-1.37.32-2.24.46-.88.15-1.77.27-2.68.37v.36c0,.18-.02.37-.06.58-.04.21-.1.42-.19.63s-.2.41-.32.6c-.13.19-.27.35-.44.47l-.67-.13c.04-.13.08-.29.11-.48.04-.19.07-.38.11-.58.03-.2.05-.39.07-.58.01-.19.02-.35.02-.49v-.25Zm.7-1.98c-1.14,0-2.05-.27-2.73-.81-.68-.54-1.02-1.28-1.02-2.21s.34-1.67,1.02-2.21c.68-.54,1.59-.81,2.73-.81s2.05.27,2.73.81c.68.54,1.02,1.28,1.02,2.21s-.34,1.67-1.02,2.21c-.68.54-1.59.81-2.73.81Zm0-5.05c-.72,0-1.32.17-1.8.52-.48.35-.72.85-.72,1.51s.24,1.16.72,1.51,1.08.52,1.8.52,1.32-.17,1.81-.52c.48-.35.72-.85.72-1.51s-.24-1.16-.72-1.51c-.48-.35-1.08-.52-1.81-.52Zm9.54,15.29c.09.1.13.26.12.48,0,.22-.07.39-.2.5h-7.9c-.61,0-1.07-.09-1.38-.29-.31-.19-.46-.53-.46-1.03v-1.2c0-.06,0-.13-.03-.19s-.06-.11-.12-.13l-.59-.29c0-.08.03-.19.09-.33s.12-.22.18-.22c.08,0,.19,0,.33.02.14.01.3.02.46.03.16,0,.31.02.47.03s.27.02.36.02h6.02c0-.08,0-.18,0-.3s.01-.26.02-.41c0-.15.01-.29.02-.45,0-.15,0-.29,0-.42h-5.09c-.19,0-.41.02-.66.07-.25.04-.42.07-.52.07-.11,0-.27-.02-.46-.06-.2-.04-.39-.08-.58-.14-.19-.06-.36-.11-.51-.17-.15-.06-.25-.1-.28-.12,0-.22.02-.38.07-.48s.08-.16.12-.16c.08,0,.22,0,.43.02s.45.02.72.03c.27,0,.56.02.86.03.3.01.57.02.83.02h4.01c.08,0,.17,0,.29-.02.11-.01.23-.02.34-.03.11,0,.22-.02.32-.03s.18-.02.23-.02c.1,0,.26,0,.46.02s.38.03.52.06c.16.03.27.07.3.13s.06.13.06.19-.01.17-.04.32c-.03.15-.05.32-.08.49-.03.18-.06.36-.09.55-.03.19-.05.35-.07.49-.01.03-.03.07-.04.13-.01.06-.02.11-.02.13.18.04.29.1.33.18.04.08.07.17.07.28,0,.11-.04.22-.11.31-.08.09-.23.14-.46.14h-6.82v1.33c0,.19.05.31.16.37s.22.09.35.09h4.75c.38,0,.76-.04,1.14-.13.38-.09.67-.13.86-.13.29,0,.55,0,.77.03.22.02.38.08.46.18Zm-2.28-15.07c0-.13-.03-.22-.08-.29-.05-.06-.11-.12-.17-.17l-1.03-.7c0-.17.05-.31.16-.45.11-.13.2-.2.28-.2.09,0,.23.02.42.07.19.04.39.1.59.16.2.06.39.12.57.18.18.06.3.1.38.14.1.05.17.1.21.16.04.06.06.14.06.24,0,.05,0,.12,0,.2,0,.08-.01.17-.02.27,0,.09-.01.19-.02.28s0,.16,0,.21l-.04,6.5c0,.23-.01.47-.04.74-.03.27-.06.52-.1.77-.04.25-.09.47-.14.67s-.12.34-.2.45h-.57c-.06-.11-.11-.27-.14-.48-.03-.2-.06-.42-.08-.67l-2.28.04c-.16-.01-.34,0-.51.07-.18.06-.32.09-.44.09-.08,0-.18-.02-.31-.07-.13-.04-.27-.09-.4-.15-.13-.06-.26-.12-.37-.19-.11-.07-.2-.12-.27-.16,0-.11.02-.22.05-.31.03-.09.08-.14.14-.14.03,0,.12,0,.29,0,.17,0,.37.02.6.03.23.01.46.02.68.03.23,0,.4,0,.53,0l2.26-.04V2.19Z"/>
    </g>
  </g>
  <g id="_4" data-name=" 4">
    <g class="cls-6">
      <path class="cls-3" d="m55.26,82.71c.15.02.31.05.48.08s.33.07.48.1c.15.03.27.07.37.09.1.03.14.05.14.06,0,.08,0,.17-.02.28-.01.11-.04.21-.09.3h-3.96c-.03-.09-.05-.21-.06-.35,0-.14.01-.24.06-.3.01-.01.07-.03.16-.06.1-.03.2-.06.31-.08l.34-.08c.11-.03.2-.05.25-.06.19-.03.29-.1.31-.2.01-.11.02-.25.03-.42,0-.16,0-.33,0-.48v-1.09h-5.52l-.51-.68,6.48-8.06c.24.06.49.09.75.1v7.58h2.28s.05.08.05.14c0,.15-.03.29-.08.44-.05.15-.12.31-.2.48h-2.06v2.21Zm-1.19-3.26v-4.37c0-.17,0-.37,0-.59s.02-.45.04-.68l-4.52,5.64h4.47Z"/>
    </g>
  </g>
  <g id="_11" data-name=" 11">
    <g class="cls-6">
      <path class="cls-3" d="m51.14,114.79c.17.03.33.07.48.1.15.03.27.07.37.09.1.03.14.05.14.06,0,.08,0,.17-.02.28-.01.11-.04.21-.08.3h-3.96c-.03-.09-.05-.21-.06-.35s.01-.24.06-.3c.01-.01.07-.03.16-.06.1-.03.2-.06.31-.08s.23-.06.34-.08c.11-.03.2-.05.25-.06.19-.03.29-.1.31-.2,0-.11.02-.25.03-.42,0-.16,0-.33,0-.49v-7.46c0-.23,0-.42,0-.59,0-.17.01-.32.03-.44l-1.75.08c-.04-.08-.07-.2-.08-.35-.01-.15,0-.28.02-.38.11-.05.29-.1.54-.17.25-.07.51-.14.78-.2.27-.07.53-.13.77-.19s.42-.1.54-.12l.34.12v10.83c.15.02.31.05.48.08Z"/>
      <path class="cls-3" d="m57.04,114.79c.17.03.33.07.48.1.15.03.27.07.37.09.1.03.14.05.14.06,0,.08,0,.17-.02.28-.01.11-.04.21-.08.3h-3.96c-.03-.09-.05-.21-.06-.35,0-.14.01-.24.06-.3.01-.01.06-.03.16-.06s.2-.06.31-.08.23-.06.34-.08c.11-.03.2-.05.25-.06.19-.03.29-.1.31-.2.01-.11.02-.25.03-.42,0-.16,0-.33,0-.49v-7.46c0-.23,0-.42,0-.59,0-.17.01-.32.03-.44l-1.75.08c-.04-.08-.07-.2-.08-.35-.01-.15,0-.28.02-.38.11-.05.29-.1.54-.17.25-.07.51-.14.78-.2.27-.07.53-.13.77-.19.24-.06.42-.1.54-.12l.34.12v10.83c.15.02.31.05.48.08Z"/>
    </g>
  </g>
  <g id="_18" data-name=" 18">
    <g class="cls-6">
      <path class="cls-3" d="m48.33,144.82c.16.03.31.06.45.1s.25.06.34.09c.09.03.14.05.14.06,0,.07,0,.16-.02.26-.01.1-.04.19-.08.28h-3.73c-.03-.09-.05-.2-.06-.33,0-.13.01-.23.06-.28.01-.01.06-.03.15-.06.09-.03.19-.05.3-.08s.21-.05.32-.08c.11-.03.19-.05.24-.06.18-.03.28-.1.29-.19,0-.11.02-.24.02-.39,0-.15,0-.31,0-.46v-7.02c0-.21,0-.4,0-.56,0-.16.01-.3.02-.42l-1.65.08c-.04-.07-.07-.18-.08-.33-.01-.14,0-.26.02-.36.11-.04.28-.1.51-.16.23-.06.48-.13.74-.19.26-.06.5-.12.73-.18.23-.05.4-.09.5-.11l.32.11v10.19c.14.02.29.05.45.08Z"/>
      <path class="cls-3" d="m56.32,139.9c.23.08.49.19.75.33.27.13.51.3.74.51s.41.46.56.77c.15.3.22.67.22,1.1s-.08.85-.24,1.25-.4.74-.73,1.04c-.33.3-.73.54-1.22.72s-1.05.27-1.7.27c-.57,0-1.09-.07-1.57-.21-.48-.14-.9-.34-1.25-.61-.35-.27-.63-.59-.83-.98-.2-.38-.3-.82-.3-1.31,0-.71.2-1.3.6-1.77.4-.46.91-.85,1.54-1.14-.18-.08-.37-.19-.56-.33-.19-.13-.37-.3-.53-.49-.16-.19-.29-.42-.4-.68-.11-.26-.16-.57-.16-.92,0-.46.08-.87.26-1.24.17-.37.41-.68.73-.95.31-.27.69-.47,1.14-.62.44-.14.93-.22,1.46-.22s1.02.07,1.44.22c.42.14.77.35,1.05.61.28.26.5.57.64.93.14.36.22.75.22,1.18,0,.61-.15,1.11-.46,1.52-.3.41-.77.75-1.4,1.02Zm-4.37,2.9c0,.42.08.77.23,1.05.15.28.36.51.61.7.25.18.54.31.86.39s.66.12,1,.12c.42,0,.79-.06,1.14-.17.34-.11.63-.26.86-.46.24-.19.42-.42.54-.7.13-.27.19-.57.19-.89s-.07-.59-.2-.82-.3-.42-.5-.58-.42-.28-.66-.38-.45-.18-.64-.26l-1.63-.59c-.57.25-1.01.58-1.33,1.02s-.48.95-.48,1.56Zm.45-5.62c0,.48.17.89.5,1.22s.75.59,1.24.76l1.34.46c.3-.17.55-.35.74-.55.2-.2.35-.4.47-.6.12-.2.2-.4.24-.6.04-.2.06-.38.06-.55,0-.66-.21-1.17-.64-1.54-.43-.36-.97-.54-1.63-.54-.36,0-.69.05-.98.16-.29.11-.53.25-.74.42s-.36.38-.46.62-.16.48-.16.74Z"/>
    </g>
  </g>
  <g id="_25" data-name=" 25">
    <g class="cls-6">
      <path class="cls-3" d="m50.61,174.7c.1,0,.2.02.32.06.12.04.21.08.29.12l-.18,2.8c-.14,0-.28,0-.41-.02-.13-.02-.27-.04-.41-.06h-6.75v-1.01c.39-.31.75-.6,1.08-.87.33-.27.63-.53.92-.78s.56-.49.82-.72c.26-.24.51-.47.77-.72.33-.31.64-.61.94-.9.29-.29.55-.58.77-.88s.39-.61.52-.94c.13-.33.19-.7.19-1.1,0-.78-.2-1.38-.59-1.79-.4-.42-1.04-.62-1.94-.62-.36,0-.66.03-.88.1s-.39.15-.51.23c-.03.07-.06.18-.09.3-.03.13-.05.26-.06.41-.01.14-.02.29-.02.43s0,.27.02.38l-.05.1c-.07.09-.18.14-.3.18-.13.03-.26.05-.4.05-.31,0-.54-.08-.69-.22-.15-.15-.22-.31-.22-.5,0-.2.08-.43.22-.67.15-.25.33-.47.54-.67.26-.25.62-.46,1.1-.66.47-.19,1.06-.29,1.77-.29,1.08,0,1.89.25,2.45.76s.83,1.22.83,2.15c0,.52-.07.99-.22,1.41-.14.42-.35.81-.61,1.18-.26.37-.57.73-.94,1.07s-.76.72-1.18,1.11c-.46.43-.94.85-1.45,1.27-.51.42-1.01.83-1.5,1.22l1.9-.06h3.31c.04-.13.1-.3.17-.5s.14-.41.2-.61.12-.37.17-.51c.05-.14.08-.22.09-.22Z"/>
      <path class="cls-3" d="m58.77,171.54c.41.25.74.58,1.02,1.01.27.43.41.99.41,1.7,0,1.18-.38,2.09-1.14,2.71-.76.62-1.8.94-3.12.94-.34,0-.71-.03-1.1-.08-.39-.05-.76-.17-1.11-.35-.12-.06-.24-.14-.37-.22-.13-.09-.25-.18-.35-.29-.11-.11-.2-.23-.26-.36-.07-.13-.1-.28-.1-.44,0-.09.01-.18.04-.28.03-.1.07-.19.14-.28.07-.08.16-.15.27-.21.11-.05.25-.08.42-.08.12,0,.24.02.37.05.13.03.23.08.32.14l.02.06c-.02.21.01.45.1.7.09.25.19.42.31.52.1.08.29.16.58.22.29.06.61.1.96.1.9,0,1.59-.25,2.09-.74.5-.5.74-1.14.74-1.94,0-.32-.05-.63-.14-.92-.09-.29-.24-.55-.45-.78s-.49-.41-.83-.55c-.35-.14-.77-.21-1.27-.21-.12,0-.27,0-.46.02s-.38.02-.59.04-.42.04-.62.06c-.21.02-.38.05-.52.08h-.46v-5.41h6.16s.05.08.05.13c0,.14-.02.29-.07.45-.05.16-.11.32-.18.48h-3.06l-2.02-.05v2.3l-.05,1.25c.14-.04.3-.08.49-.11s.38-.06.58-.09c.2-.03.39-.05.59-.06.2-.02.38-.02.55-.02.49,0,.91.06,1.26.18.35.12.62.24.81.36Z"/>
    </g>
  </g>
  <g id="_화" data-name="화">
    <g class="cls-6">
      <path class="cls-3" d="m102.73,8.83c.08.1.12.24.12.43,0,.18-.03.33-.1.45h-3.61l-.02,6.29c0,.25-.01.52-.04.79-.03.27-.06.53-.09.76-.04.23-.09.45-.14.64-.06.19-.12.33-.2.44h-.57c-.1-.18-.17-.46-.2-.85-.03-.39-.05-.78-.05-1.16v-3.34c-.63.15-1.34.29-2.13.43-.79.13-1.59.25-2.4.36-.82.11-1.62.2-2.39.28-.78.08-1.47.13-2.08.15-.41.03-.71.06-.93.11-.22.05-.44.08-.67.08-.08,0-.2-.03-.37-.08-.17-.05-.35-.11-.55-.18-.2-.07-.38-.14-.56-.22s-.31-.14-.4-.19c0-.18.03-.33.09-.46.06-.13.13-.19.19-.19.03,0,.11,0,.26.03.15.02.31.04.49.06.18.02.37.04.56.06.19.02.35.03.47.03h.57c.14,0,.29,0,.44,0,.15,0,.29,0,.4,0,.29-.01.6-.03.93-.05.33-.02.68-.05,1.04-.09-.03-.14-.04-.3-.05-.47s0-.34,0-.48v-1.03c-.46-.05-.87-.16-1.24-.31-.37-.16-.68-.36-.94-.61s-.46-.53-.6-.85c-.14-.32-.21-.67-.21-1.05,0-.42.08-.8.26-1.16.17-.35.41-.66.73-.92.32-.26.69-.46,1.13-.6.44-.14.92-.21,1.45-.21s1.02.07,1.46.21c.44.14.82.34,1.13.6.31.26.55.57.72.92.17.35.26.74.26,1.16,0,.75-.26,1.37-.78,1.88s-1.21.82-2.09.95l-.02.84c0,.13,0,.29-.03.48s-.04.38-.07.56c.51-.05,1.03-.11,1.56-.18.53-.07,1.05-.14,1.57-.22.51-.08,1-.16,1.47-.25.47-.09.91-.18,1.31-.28V2.19c0-.13-.03-.22-.08-.29s-.11-.12-.17-.17l-1.03-.7c0-.17.05-.31.16-.45.11-.13.2-.2.28-.2.09,0,.23.02.42.07.19.04.39.1.59.16.2.06.39.12.57.18.18.06.3.1.38.14.1.05.17.1.21.16.04.06.06.14.06.24,0,.05,0,.12,0,.2,0,.08-.01.17-.02.27,0,.09-.01.19-.02.28s0,.16,0,.21l-.02,6.59h.49c.18,0,.36-.02.55-.05.19-.03.37-.07.54-.1.17-.04.33-.07.46-.11.14-.03.25-.05.34-.05.28,0,.53.02.74.06.21.04.37.11.46.21Zm-13.76-3.95c-.2,0-.42.04-.67.1-.24.07-.44.1-.61.1-.09,0-.22-.02-.4-.07-.18-.04-.36-.1-.55-.17-.19-.07-.37-.14-.53-.21-.17-.07-.28-.12-.34-.16.01-.09.04-.22.09-.38.04-.17.09-.25.14-.25.08,0,.22,0,.43.02s.45.03.71.05c.27.02.55.04.85.05s.59.02.87.02h4.18c.29,0,.6-.03.91-.09s.56-.1.74-.1c.05,0,.14,0,.26.02.12.01.25.03.38.04.13.01.25.03.36.04s.18.03.22.04c.06.01.11.06.14.14.03.08.05.18.06.28,0,.11,0,.21-.04.3-.03.09-.08.17-.14.22h-7.07Zm4.48-2.17c-.44.04-.96.07-1.54.1-.58.03-1.1.03-1.54,0-.09-.01-.22-.05-.38-.12-.16-.07-.33-.15-.51-.24-.18-.09-.35-.18-.52-.29-.17-.1-.3-.18-.39-.25.03-.1.06-.22.1-.35.04-.13.1-.19.16-.18.08.01.2.04.37.07.17.03.36.06.56.09s.41.06.63.09c.21.03.41.05.59.05l2.47.09c.08,0,.13.04.17.13.04.09.06.19.06.29s-.02.21-.06.3-.09.16-.17.2Zm-4.54,5.85c0,.61.23,1.08.69,1.42.46.34,1.04.51,1.72.51s1.27-.17,1.73-.51.68-.82.68-1.42-.23-1.08-.68-1.42c-.46-.34-1.03-.51-1.73-.51s-1.26.17-1.72.51c-.46.34-.69.82-.69,1.42Z"/>
    </g>
  </g>
  <g id="_5" data-name=" 5">
    <g class="cls-6">
      <path class="cls-3" d="m96.33,77.18c.43.26.79.62,1.08,1.07.29.45.43,1.05.43,1.8,0,1.26-.4,2.22-1.21,2.88s-1.91,1-3.32,1c-.36,0-.75-.03-1.16-.08-.41-.06-.81-.18-1.18-.37-.12-.07-.25-.15-.39-.24-.14-.09-.26-.19-.37-.31-.11-.11-.21-.24-.28-.38-.07-.14-.11-.3-.11-.47,0-.09.01-.19.04-.3.03-.11.08-.21.15-.3.07-.09.17-.16.29-.22.12-.06.27-.08.45-.08.12,0,.25.02.39.05.14.03.25.08.34.15l.02.07c-.02.23.01.47.11.74.1.27.21.45.33.55.1.09.31.17.61.24.31.07.65.1,1.02.1.95,0,1.69-.26,2.22-.79s.79-1.22.79-2.07c0-.34-.05-.67-.14-.98-.1-.31-.25-.59-.48-.83-.22-.24-.52-.44-.88-.59s-.82-.22-1.35-.22c-.12,0-.29,0-.48.02-.2.01-.41.03-.63.04-.22.02-.44.04-.66.06s-.41.05-.55.08h-.49v-5.75h6.54s.05.08.05.14c0,.15-.03.31-.08.48-.05.17-.12.34-.2.51h-3.25l-2.14-.05v2.45l-.05,1.33c.15-.04.32-.08.52-.12.2-.03.4-.06.61-.09.21-.03.42-.05.63-.07.21-.02.41-.03.59-.03.52,0,.97.07,1.33.2s.66.26.86.38Z"/>
    </g>
  </g>
  <g id="_12" data-name=" 12">
    <g class="cls-6">
      <path class="cls-3" d="m89.45,113.82c.16.03.31.06.45.1s.25.06.34.09c.09.03.14.05.14.06,0,.07,0,.16-.02.26s-.04.19-.08.28h-3.73c-.03-.09-.05-.2-.06-.33,0-.13.01-.23.06-.28.01-.01.06-.03.15-.06.09-.03.19-.05.3-.08.11-.03.21-.05.32-.08s.19-.05.24-.06c.18-.03.28-.1.29-.19.01-.11.02-.24.02-.39,0-.15,0-.31,0-.46v-7.02c0-.21,0-.4,0-.56,0-.16.01-.3.02-.42l-1.65.08c-.04-.07-.07-.18-.08-.33-.01-.14,0-.26.02-.36.11-.04.28-.1.51-.16.23-.06.48-.13.74-.19.26-.06.5-.12.73-.18.23-.05.4-.09.5-.11l.32.11v10.19c.14.02.29.05.45.08Z"/>
      <path class="cls-3" d="m98.9,111.7c.1,0,.2.02.32.06.12.04.21.08.29.12l-.18,2.8c-.14,0-.28,0-.41-.02-.13-.02-.27-.04-.41-.06h-6.75v-1.01c.39-.31.75-.6,1.08-.87.33-.27.63-.53.92-.78s.56-.49.82-.72c.26-.24.51-.47.77-.72.33-.31.64-.61.94-.9.29-.29.55-.58.77-.88s.39-.61.52-.94c.13-.33.19-.7.19-1.1,0-.78-.2-1.38-.59-1.79-.4-.42-1.04-.62-1.94-.62-.36,0-.66.03-.88.1s-.39.15-.51.23c-.03.07-.06.18-.09.3-.03.13-.05.26-.06.41-.01.14-.02.29-.02.43s0,.27.02.38l-.05.1c-.07.09-.18.14-.3.18-.13.03-.26.05-.4.05-.31,0-.54-.08-.69-.22-.15-.15-.22-.31-.22-.5,0-.2.08-.43.22-.67.15-.25.33-.47.54-.67.26-.25.62-.46,1.1-.66.47-.19,1.06-.29,1.77-.29,1.08,0,1.89.25,2.45.76s.83,1.22.83,2.15c0,.52-.07.99-.22,1.41-.14.42-.35.81-.61,1.18-.26.37-.57.73-.94,1.07s-.76.72-1.18,1.11c-.46.43-.94.85-1.45,1.27-.51.42-1.01.83-1.5,1.22l1.9-.06h3.31c.04-.13.1-.3.17-.5s.14-.41.2-.61.12-.37.17-.51c.05-.14.08-.22.09-.22Z"/>
    </g>
  </g>
  <g id="_19" data-name=" 19">
    <g class="cls-6">
      <path class="cls-3" d="m89.51,144.82c.16.03.31.06.45.1s.25.06.34.09c.09.03.14.05.14.06,0,.07,0,.16-.02.26s-.04.19-.08.28h-3.73c-.03-.09-.05-.2-.06-.33,0-.13.01-.23.06-.28.01-.01.06-.03.15-.06s.19-.05.3-.08.21-.05.32-.08.19-.05.24-.06c.18-.03.28-.1.29-.19,0-.11.02-.24.02-.39,0-.15,0-.31,0-.46v-7.02c0-.21,0-.4,0-.56,0-.16.01-.3.02-.42l-1.65.08c-.04-.07-.07-.18-.08-.33-.01-.14,0-.26.02-.36.11-.04.28-.1.51-.16.23-.06.48-.13.74-.19.26-.06.5-.12.73-.18.23-.05.4-.09.5-.11l.32.11v10.19c.14.02.29.05.45.08Z"/>
      <path class="cls-3" d="m95.77,134.43c.62,0,1.15.1,1.6.31s.82.5,1.11.89c.29.38.51.85.66,1.39.14.54.22,1.16.22,1.84,0,1.06-.14,2-.42,2.82-.28.83-.69,1.54-1.21,2.13-.52.59-1.16,1.06-1.9,1.41-.75.35-1.58.57-2.51.66l-.42-.8c.44-.04.88-.12,1.33-.22.45-.11.9-.3,1.34-.58.3-.18.59-.41.86-.67.28-.27.53-.58.77-.94.23-.36.43-.78.59-1.25.16-.47.27-1,.32-1.6-.11.14-.22.28-.33.42s-.21.24-.3.3c-.1.08-.23.16-.4.26s-.38.19-.62.28c-.24.09-.51.16-.81.22-.3.06-.62.1-.98.1s-.71-.06-1.06-.19c-.34-.13-.65-.32-.91-.58-.27-.26-.48-.59-.64-.98s-.24-.85-.24-1.38.09-1.05.27-1.52c.18-.47.44-.88.78-1.22.34-.35.75-.62,1.24-.81.49-.19,1.03-.29,1.64-.29Zm-2.74,3.55c0,.75.2,1.34.6,1.77.4.43.98.65,1.75.65.48,0,.94-.09,1.38-.27.44-.18.9-.44,1.38-.77,0-.07.02-.14.02-.21v-.21c0-.41-.04-.82-.12-1.26-.08-.43-.22-.82-.42-1.18-.2-.35-.46-.64-.79-.86-.33-.22-.75-.34-1.26-.34-.32,0-.63.05-.94.15-.3.1-.57.26-.81.47-.23.21-.42.49-.57.82-.14.34-.22.74-.22,1.22Z"/>
    </g>
  </g>
  <g id="_26" data-name=" 26">
    <g class="cls-6">
      <path class="cls-3" d="m92.61,174.7c.1,0,.2.02.32.06.12.04.21.08.29.12l-.18,2.8c-.14,0-.27,0-.41-.02s-.27-.04-.41-.06h-6.75v-1.01c.39-.31.75-.6,1.08-.87.33-.27.63-.53.92-.78s.56-.49.82-.72c.26-.24.51-.47.77-.72.33-.31.64-.61.94-.9.29-.29.55-.58.77-.88s.39-.61.52-.94c.13-.33.19-.7.19-1.1,0-.78-.2-1.38-.59-1.79-.4-.42-1.04-.62-1.94-.62-.36,0-.66.03-.88.1-.22.07-.4.15-.51.23-.03.07-.06.18-.09.3s-.05.26-.06.41c-.01.14-.02.29-.02.43s0,.27.02.38l-.05.1c-.07.09-.18.14-.3.18-.13.03-.26.05-.4.05-.31,0-.54-.08-.69-.22-.15-.15-.22-.31-.22-.5,0-.2.07-.43.22-.67.15-.25.33-.47.54-.67.26-.25.62-.46,1.1-.66.47-.19,1.06-.29,1.77-.29,1.08,0,1.89.25,2.45.76s.83,1.22.83,2.15c0,.52-.07.99-.22,1.41-.14.42-.35.81-.61,1.18-.26.37-.57.73-.94,1.07-.36.35-.76.72-1.18,1.11-.46.43-.94.85-1.45,1.27-.51.42-1.01.83-1.5,1.22l1.9-.06h3.31c.04-.13.1-.3.17-.5.07-.21.13-.41.2-.61s.12-.37.17-.51c.05-.14.08-.22.09-.22Z"/>
      <path class="cls-3" d="m99.37,170.94c.45,0,.85.08,1.22.23.36.16.67.37.93.66.26.28.45.63.59,1.03s.21.85.21,1.34c0,.53-.08,1.03-.23,1.48-.16.45-.39.84-.7,1.17-.31.33-.7.58-1.17.76-.47.18-1.01.27-1.63.27-1.2,0-2.13-.36-2.79-1.09-.67-.72-1-1.88-1-3.46,0-.86.1-1.63.29-2.31.19-.68.45-1.27.77-1.78s.69-.95,1.11-1.3c.42-.36.86-.65,1.33-.87.46-.22.93-.39,1.39-.49.46-.1.9-.15,1.32-.15l.24.82c-.47.03-.91.09-1.33.18-.42.09-.83.26-1.23.51-.31.19-.61.43-.9.71-.29.28-.56.62-.81,1-.24.38-.45.82-.62,1.31-.17.49-.28,1.04-.33,1.63.11-.15.22-.29.34-.42.12-.13.22-.24.3-.31.06-.05.18-.13.34-.23s.36-.2.59-.3.5-.19.81-.26c.3-.08.63-.11.97-.11Zm-3.38,2.38c0,.54.05,1.04.17,1.49.11.45.29.83.52,1.16s.53.58.88.76.77.27,1.25.27c.68,0,1.24-.2,1.67-.6s.65-1.03.65-1.9c0-.36-.04-.7-.13-1.02-.09-.31-.22-.59-.41-.82-.19-.23-.42-.41-.71-.54-.29-.13-.64-.19-1.06-.19-.5,0-.98.09-1.43.27-.45.18-.92.44-1.4.77v.34Z"/>
    </g>
  </g>
  <g id="_수" data-name="수">
    <g class="cls-6">
      <path class="cls-3" d="m144.35,10.36c.06.1.09.25.09.46s-.03.35-.09.46h-7.62l-.02,4.88c0,.25-.01.5-.04.75-.03.25-.06.48-.09.71-.04.23-.09.43-.14.61-.06.18-.12.31-.2.4h-.57c-.1-.18-.17-.45-.21-.82-.04-.37-.06-.73-.06-1.1v-5.43h-4.07c-.14,0-.3.02-.49.05-.19.03-.37.06-.55.1-.18.03-.34.06-.48.09s-.23.05-.28.05c-.1,0-.25-.03-.46-.08-.2-.06-.41-.13-.64-.21-.22-.08-.44-.17-.65-.25s-.36-.15-.45-.2c0-.19.02-.35.07-.48.04-.13.12-.2.22-.2.19,0,.62.03,1.28.1s1.47.09,2.42.09h9.59c.18,0,.37-.02.57-.05.2-.03.4-.06.6-.09.2-.03.38-.06.54-.09.16-.03.3-.05.4-.05.29,0,.57.03.83.09.26.06.42.14.48.24Zm-15.2-2.01c-.08,0-.15-.03-.23-.09-.08-.06-.14-.13-.18-.2s-.07-.13-.09-.19c-.01-.06,0-.09.04-.1.47-.09,1-.3,1.61-.64.6-.33,1.21-.74,1.84-1.22.63-.47,1.23-.99,1.81-1.55.58-.56,1.08-1.12,1.5-1.67.14-.18.2-.31.18-.39-.02-.08-.07-.16-.16-.22l-.68-.57c.04-.08.09-.17.16-.29.07-.11.14-.17.2-.17.1,0,.25.03.44.08s.38.11.58.17c.2.06.38.13.54.19.16.06.27.11.3.13.39.23.4.61.02,1.14l-.51.68,2.79,1.48c.11.06.25.13.4.19s.31.12.46.18c.16.06.31.12.47.18.15.06.28.12.38.17.13.08.29.17.47.29.19.12.38.25.56.38.18.13.35.27.5.4s.25.24.3.33c.03.05.03.11,0,.19s-.06.15-.11.23c-.05.08-.11.15-.18.21-.07.06-.13.11-.18.13-1.13-.61-2.23-1.21-3.3-1.81s-2.14-1.21-3.22-1.81c-.48.53-1,1.03-1.56,1.49-.56.46-1.13.87-1.71,1.23-.58.36-1.17.67-1.76.92-.59.25-1.16.42-1.7.51Z"/>
    </g>
  </g>
  <g id="_6" data-name=" 6">
    <g class="cls-6">
      <path class="cls-3" d="m136.85,76.55c.48,0,.91.08,1.29.25s.71.4.99.7c.27.3.48.67.63,1.1.15.43.22.91.22,1.43,0,.57-.08,1.09-.25,1.57s-.41.9-.74,1.24c-.33.35-.74.61-1.24.81-.5.19-1.08.29-1.73.29-1.27,0-2.26-.39-2.97-1.16s-1.06-2-1.06-3.67c0-.92.1-1.74.31-2.46.21-.72.48-1.35.82-1.9s.73-1.01,1.18-1.39c.45-.38.92-.69,1.41-.93.49-.24.99-.41,1.48-.52.49-.11.96-.16,1.4-.16l.25.87c-.5.03-.97.1-1.41.19-.44.09-.88.27-1.31.54-.33.2-.65.46-.96.76-.31.3-.6.66-.86,1.06-.26.41-.48.87-.65,1.39s-.29,1.1-.35,1.73c.11-.16.23-.31.36-.45.12-.14.23-.25.32-.33.07-.06.19-.14.36-.25.17-.11.38-.21.63-.32.25-.11.54-.2.86-.28.32-.08.67-.12,1.03-.12Zm-3.59,2.53c0,.58.06,1.11.18,1.58.12.48.3.89.55,1.23.25.35.56.62.93.81.37.19.82.29,1.33.29.73,0,1.32-.21,1.78-.64.46-.42.69-1.1.69-2.01,0-.38-.05-.75-.14-1.08-.09-.33-.24-.62-.43-.87-.2-.24-.45-.43-.76-.57s-.68-.2-1.12-.2c-.53,0-1.04.1-1.52.29-.48.19-.98.46-1.49.82v.36Z"/>
    </g>
  </g>
  <g id="_13" data-name=" 13">
    <g class="cls-6">
      <path class="cls-3" d="m131.53,113.82c.16.03.31.06.45.1s.25.06.34.09c.09.03.14.05.14.06,0,.07,0,.16-.02.26s-.04.19-.08.28h-3.73c-.03-.09-.05-.2-.06-.33,0-.13.01-.23.06-.28.01-.01.06-.03.15-.06.09-.03.19-.05.3-.08.11-.03.21-.05.32-.08s.19-.05.24-.06c.18-.03.28-.1.29-.19.01-.11.02-.24.02-.39,0-.15,0-.31,0-.46v-7.02c0-.21,0-.4,0-.56,0-.16.01-.3.02-.42l-1.65.08c-.04-.07-.07-.18-.08-.33-.01-.14,0-.26.02-.36.11-.04.28-.1.51-.16.23-.06.48-.13.74-.19.26-.06.5-.12.73-.18.23-.05.4-.09.5-.11l.32.11v10.19c.14.02.29.05.45.08Z"/>
      <path class="cls-3" d="m140.06,108.95c.38.21.7.52.94.91.24.39.36.9.36,1.5,0,.51-.09.98-.26,1.42-.18.43-.44.8-.79,1.11-.35.31-.79.55-1.32.73s-1.14.26-1.85.26c-.33,0-.69-.03-1.07-.08-.38-.05-.75-.17-1.1-.35-.12-.06-.24-.14-.37-.22-.13-.09-.25-.18-.35-.29s-.19-.23-.26-.36c-.07-.13-.1-.28-.1-.44,0-.09.01-.18.04-.28s.08-.19.14-.28c.07-.08.16-.15.27-.21.11-.05.25-.08.42-.08.12,0,.24.02.37.05.13.03.23.08.32.14l.02.06c-.02.21.01.45.1.7.09.25.19.42.31.52.09.07.27.15.54.22s.6.1.96.1c.44,0,.83-.06,1.18-.19.35-.13.64-.3.88-.53.24-.22.42-.49.55-.78.13-.3.19-.61.19-.94,0-.29-.04-.57-.13-.86-.08-.28-.23-.54-.42-.76-.2-.22-.46-.41-.78-.54-.32-.14-.71-.21-1.17-.21-.09,0-.19,0-.3,0-.12,0-.24.01-.37.02-.13,0-.25.01-.37.02-.12,0-.21.01-.27.02l-.1-.13c.05-.14.12-.28.22-.42s.19-.26.3-.34c.18,0,.4-.01.66-.04s.5-.07.72-.12c.43-.12.78-.35,1.07-.7s.43-.81.43-1.4-.19-1.06-.56-1.4c-.37-.34-.97-.5-1.79-.5-.37,0-.68.04-.93.12-.25.08-.42.16-.51.25-.03.05-.06.14-.08.25-.02.11-.04.23-.05.36s-.02.26-.02.4,0,.26.02.35l-.05.1c-.08.08-.18.14-.32.16s-.25.03-.34.03c-.31,0-.53-.07-.66-.22-.13-.15-.2-.3-.2-.45,0-.18.07-.38.22-.61.15-.22.33-.43.54-.62.27-.25.63-.47,1.09-.66s1.05-.3,1.78-.3c.97,0,1.71.22,2.22.65s.76,1.06.76,1.9c0,.51-.08.93-.23,1.25-.16.32-.37.59-.65.8-.25.21-.57.39-.96.54.37.06.75.19,1.12.38Z"/>
    </g>
  </g>
  <g id="_20" data-name=" 20">
    <g class="cls-6">
      <path class="cls-3" d="m133.87,143.55c.1,0,.21.02.34.06.12.04.23.08.31.13l-.19,2.97c-.15,0-.29,0-.43-.03-.14-.02-.29-.04-.43-.06h-7.17v-1.07c.42-.33.8-.64,1.15-.93s.67-.56.98-.83c.31-.26.59-.51.87-.76.27-.25.54-.5.82-.76.35-.33.68-.65,1-.95.31-.31.58-.62.82-.94.23-.32.42-.65.55-1,.14-.35.21-.74.21-1.17,0-.83-.21-1.46-.63-1.9-.42-.44-1.11-.66-2.06-.66-.39,0-.7.04-.93.11-.24.07-.42.16-.54.25-.03.08-.06.19-.09.32s-.05.28-.06.43-.02.31-.02.46,0,.29.02.4l-.05.1c-.08.09-.19.15-.32.19s-.28.05-.42.05c-.33,0-.57-.08-.73-.24-.16-.16-.24-.33-.24-.53,0-.22.08-.45.24-.71.16-.26.35-.5.58-.71.27-.26.66-.49,1.17-.7.5-.2,1.13-.31,1.88-.31,1.14,0,2.01.27,2.6.81.59.54.88,1.3.88,2.29,0,.55-.08,1.05-.23,1.5-.15.44-.37.86-.65,1.25-.28.39-.61.77-1,1.14-.39.37-.8.76-1.26,1.18-.49.45-1,.9-1.54,1.35-.54.45-1.07.88-1.59,1.3l2.02-.07h3.52c.05-.14.11-.31.18-.54.07-.22.14-.44.21-.65.07-.21.13-.39.18-.54.05-.15.08-.23.09-.23Z"/>
      <path class="cls-3" d="m140.77,146.93c-.7,0-1.33-.14-1.9-.43s-1.04-.7-1.43-1.22c-.39-.53-.69-1.17-.9-1.92s-.31-1.59-.31-2.51.1-1.75.31-2.51.51-1.39.9-1.92c.39-.53.87-.94,1.43-1.22s1.19-.43,1.9-.43,1.32.14,1.88.43c.56.29,1.04.7,1.42,1.22.38.53.68,1.17.89,1.92.21.75.31,1.59.31,2.51s-.11,1.75-.31,2.51c-.21.75-.51,1.39-.89,1.92-.38.53-.86.94-1.42,1.22-.56.29-1.19.43-1.88.43Zm-3.26-6.09c0,.81.08,1.52.23,2.15.15.63.37,1.16.65,1.6s.63.77,1.03,1c.4.23.85.35,1.33.35s.95-.12,1.35-.35c.4-.23.74-.57,1.02-1.01.28-.44.49-.98.65-1.61.15-.63.23-1.34.23-2.13s-.08-1.5-.23-2.13c-.15-.63-.37-1.17-.65-1.61-.28-.44-.62-.78-1.02-1.01-.4-.23-.85-.35-1.35-.35s-.93.12-1.33.35c-.4.23-.75.57-1.03,1s-.5.97-.65,1.61c-.15.63-.23,1.35-.23,2.14Z"/>
    </g>
  </g>
  <g id="_27" data-name=" 27">
    <g class="cls-6">
      <path class="cls-3" d="m135.15,175.55c.1,0,.22.02.34.06.12.04.23.08.31.13l-.19,2.97c-.15,0-.29,0-.43-.03-.14-.02-.29-.04-.43-.06h-7.17v-1.07c.42-.33.8-.64,1.15-.93s.67-.56.98-.83c.31-.26.6-.51.87-.76.27-.25.54-.5.82-.76.35-.33.68-.65.99-.95s.58-.62.82-.94c.23-.32.42-.65.55-1,.14-.35.2-.74.2-1.17,0-.83-.21-1.46-.63-1.9-.42-.44-1.1-.66-2.06-.66-.39,0-.7.04-.94.11-.24.07-.42.16-.54.25-.03.08-.06.19-.09.32s-.05.28-.06.43c-.01.15-.02.31-.02.46s0,.29.02.4l-.05.1c-.08.09-.19.15-.32.19s-.28.05-.42.05c-.33,0-.57-.08-.73-.24-.16-.16-.24-.33-.24-.53,0-.22.08-.45.24-.71.16-.26.35-.5.58-.71.27-.26.66-.49,1.16-.7.5-.2,1.13-.31,1.88-.31,1.14,0,2.01.27,2.6.81.59.54.88,1.3.88,2.29,0,.55-.08,1.05-.23,1.5-.15.44-.37.86-.65,1.25s-.61.77-.99,1.14c-.39.37-.8.76-1.26,1.18-.49.45-1,.9-1.54,1.35-.54.45-1.07.88-1.59,1.3l2.02-.07h3.52c.05-.14.11-.31.18-.54.07-.22.14-.44.21-.65.07-.21.13-.39.18-.54.05-.15.08-.23.09-.23Z"/>
      <path class="cls-3" d="m144.55,167.29l-1.79,4.01c-.48,1.07-.96,2.23-1.45,3.5-.49,1.27-.97,2.54-1.45,3.83h-1.5c.17-.43.34-.85.52-1.25s.36-.82.54-1.25c.19-.43.39-.89.62-1.39s.48-1.05.75-1.67c.18-.41.37-.83.58-1.27s.41-.87.62-1.29.42-.84.62-1.24c.2-.4.39-.77.56-1.11l-2.04.03h-4s-.07-.1-.07-.15c0-.12.03-.29.09-.48.06-.2.11-.36.17-.48h7.02l.19.22Z"/>
    </g>
  </g>
  <g id="_목" data-name="목">
    <g class="cls-6">
      <path class="cls-3" d="m186.35,9.8c.06.1.09.25.09.45s-.03.34-.09.45h-13.01c-.14,0-.3.02-.49.05-.19.03-.37.06-.55.09-.18.03-.34.06-.48.09-.14.03-.23.05-.28.05-.1,0-.25-.03-.46-.09-.2-.06-.41-.13-.64-.21-.22-.08-.44-.16-.65-.25-.21-.08-.36-.15-.45-.2,0-.18.02-.33.07-.47.04-.13.12-.2.22-.2.19,0,.62.03,1.28.09.67.06,1.47.1,2.42.1h3.97c-.01-.17-.02-.35-.03-.54,0-.2,0-.36,0-.5l-.02-1.27h-2.66c-.03.05-.07.11-.13.18-.06.07-.14.13-.23.18h-.55c-.08-.15-.13-.33-.17-.52s-.07-.45-.09-.75l-.27-3.57s-.04-.1-.11-.15-.16-.1-.25-.14-.18-.09-.28-.12c-.1-.04-.16-.08-.2-.11.01-.04.03-.1.06-.18s.05-.16.08-.24c.03-.08.06-.14.09-.2.03-.06.06-.08.09-.08.11,0,.26,0,.43.02.17.01.35.02.53.03.18,0,.36.02.54.03.18.01.33.02.46.02h6.23c.16,0,.31-.02.43-.07s.23-.07.31-.07c.14,0,.31,0,.51.03.2.02.35.04.46.05.08.01.16.07.24.16.08.09.12.19.1.29l-.46,3.95-.04.32c.08.03.16.05.24.09.08.03.15.06.22.08.03.01.04.05.05.11s0,.14,0,.22c-.01.08-.03.16-.04.25-.01.08-.03.15-.04.2h-4.16l-.02,1.06c0,.14,0,.33-.03.58-.02.25-.05.47-.09.67h4.43c.18,0,.37-.02.57-.05.2-.03.4-.06.6-.09.2-.03.38-.06.54-.1.16-.03.3-.05.4-.05.29,0,.57.03.83.08.26.06.42.14.48.24Zm-3.67,2.96c.1.04.17.09.22.16.04.07.07.19.07.35s-.01.34-.04.51c-.03.18-.04.36-.04.53l-.06,2.62c0,.15-.01.32-.04.5-.03.18-.06.36-.09.53-.04.17-.09.33-.14.48-.06.15-.12.27-.2.34h-.57c-.05-.13-.09-.3-.12-.52-.03-.22-.05-.51-.05-.87v-3.63h-5.7c-.43,0-.78.04-1.05.1-.27.07-.49.1-.66.1-.05,0-.17-.02-.36-.07-.19-.04-.39-.1-.61-.17-.21-.07-.42-.14-.63-.21-.2-.07-.34-.12-.42-.16,0-.04,0-.1.03-.17.02-.08.04-.16.07-.24.03-.08.06-.15.1-.21.04-.06.09-.08.12-.08.05,0,.18,0,.39.03s.46.04.77.06c.3.02.65.04,1.04.05s.79.02,1.21.02h4.58c.15,0,.29,0,.4-.02s.22-.03.32-.05c.1-.02.21-.04.32-.06.12-.02.24-.03.38-.03.16,0,.31,0,.43,0,.12,0,.23.03.33.07Zm-8.02-6.25h6.57l.13-3.76h-6.8l.1,3.76Z"/>
    </g>
  </g>
  <g id="_7" data-name=" 7">
    <g class="cls-6">
      <path class="cls-3" d="m181.69,72.29l-1.79,4.01c-.48,1.07-.96,2.23-1.44,3.5-.49,1.27-.97,2.54-1.45,3.83h-1.5c.17-.43.34-.85.52-1.25s.36-.82.54-1.25.39-.89.62-1.39.48-1.05.75-1.67c.18-.41.37-.83.58-1.27s.41-.87.62-1.29c.21-.42.42-.84.62-1.24s.39-.77.56-1.11l-2.04.03h-4s-.07-.1-.07-.15c0-.12.03-.29.08-.48s.11-.36.17-.48h7.02l.19.22Z"/>
    </g>
  </g>
  <g id="_14" data-name=" 14">
    <g class="cls-6">
      <path class="cls-3" d="m172.81,114.79c.17.03.33.07.48.1.15.03.27.07.37.09.1.03.14.05.14.06,0,.08,0,.17-.02.28-.01.11-.04.21-.09.3h-3.96c-.03-.09-.05-.21-.06-.35,0-.14.01-.24.06-.3.01-.01.07-.03.16-.06.1-.03.2-.06.31-.08l.34-.08c.11-.03.2-.05.25-.06.19-.03.29-.1.31-.2.01-.11.02-.25.03-.42,0-.16,0-.33,0-.49v-7.46c0-.23,0-.42,0-.59s.01-.32.03-.44l-1.75.08c-.05-.08-.07-.2-.08-.35-.01-.15,0-.28.02-.38.11-.05.29-.1.54-.17.25-.07.51-.14.78-.2.27-.07.53-.13.77-.19s.42-.1.54-.12l.34.12v10.83c.15.02.31.05.48.08Z"/>
      <path class="cls-3" d="m182.21,114.71c.15.02.31.05.48.08s.33.07.48.1c.15.03.27.07.37.09.1.03.14.05.14.06,0,.08,0,.17-.02.28-.01.11-.04.21-.09.3h-3.96c-.03-.09-.05-.21-.06-.35,0-.14.01-.24.06-.3.01-.01.07-.03.16-.06.1-.03.2-.06.31-.08l.34-.08c.11-.03.2-.05.25-.06.19-.03.29-.1.31-.2.01-.11.02-.25.03-.42,0-.16,0-.33,0-.48v-1.09h-5.52l-.51-.68,6.48-8.06c.24.06.49.09.75.1v7.58h2.28s.05.08.05.14c0,.15-.03.29-.08.44s-.12.31-.2.48h-2.06v2.21Zm-1.19-3.26v-4.37c0-.17,0-.37,0-.59s.02-.45.04-.68l-4.52,5.64h4.47Z"/>
    </g>
  </g>
  <g id="_21" data-name=" 21">
    <g class="cls-6">
      <path class="cls-3" d="m177.35,142.7c.1,0,.2.02.32.06.12.04.21.08.29.12l-.18,2.8c-.14,0-.28,0-.41-.02-.13-.02-.27-.04-.41-.06h-6.75v-1.01c.39-.31.75-.6,1.08-.87.33-.27.63-.53.92-.78s.56-.49.82-.72c.26-.24.51-.47.77-.72.33-.31.64-.61.94-.9.29-.29.55-.58.77-.88s.39-.61.52-.94c.13-.33.19-.7.19-1.1,0-.78-.2-1.38-.59-1.79-.4-.42-1.04-.62-1.94-.62-.36,0-.66.03-.88.1s-.39.15-.51.23c-.03.07-.06.18-.09.3-.03.13-.05.26-.06.41-.01.14-.02.29-.02.43s0,.27.02.38l-.05.1c-.07.09-.18.14-.3.18-.13.03-.26.05-.4.05-.31,0-.54-.08-.69-.22-.15-.15-.22-.31-.22-.5,0-.2.08-.43.22-.67.15-.25.33-.47.54-.67.26-.25.62-.46,1.1-.66.47-.19,1.06-.29,1.77-.29,1.08,0,1.89.25,2.45.76s.83,1.22.83,2.15c0,.52-.07.99-.22,1.41-.14.42-.35.81-.61,1.18-.26.37-.57.73-.94,1.07s-.76.72-1.18,1.11c-.46.43-.94.85-1.45,1.27-.51.42-1.01.83-1.5,1.22l1.9-.06h3.31c.04-.13.1-.3.17-.5s.14-.41.2-.61.12-.37.17-.51c.05-.14.08-.22.09-.22Z"/>
      <path class="cls-3" d="m182.6,144.82c.16.03.31.06.45.1s.25.06.34.09c.09.03.14.05.14.06,0,.07,0,.16-.02.26s-.04.19-.08.28h-3.73c-.03-.09-.05-.2-.06-.33,0-.13.01-.23.06-.28.01-.01.06-.03.15-.06s.19-.05.3-.08.21-.05.32-.08.19-.05.24-.06c.18-.03.28-.1.29-.19,0-.11.02-.24.02-.39,0-.15,0-.31,0-.46v-7.02c0-.21,0-.4,0-.56,0-.16.01-.3.02-.42l-1.65.08c-.04-.07-.07-.18-.08-.33-.01-.14,0-.26.02-.36.11-.04.28-.1.51-.16.23-.06.48-.13.74-.19.26-.06.5-.12.73-.18.23-.05.4-.09.5-.11l.32.11v10.19c.14.02.29.05.45.08Z"/>
    </g>
  </g>
  <g id="_28" data-name=" 28">
    <g class="cls-6">
      <path class="cls-1" d="m176.35,175.55c.1,0,.21.02.34.06.12.04.23.08.31.13l-.19,2.97c-.15,0-.29,0-.43-.03-.14-.02-.29-.04-.43-.06h-7.17v-1.07c.42-.33.8-.64,1.15-.93s.67-.56.98-.83c.31-.26.59-.51.87-.76.27-.25.54-.5.82-.76.35-.33.68-.65,1-.95.31-.31.58-.62.82-.94.23-.32.42-.65.55-1,.14-.35.2-.74.2-1.17,0-.83-.21-1.46-.63-1.9-.42-.44-1.11-.66-2.06-.66-.38,0-.7.04-.93.11-.24.07-.42.16-.54.25-.03.08-.07.19-.09.32s-.05.28-.06.43c-.01.15-.02.31-.02.46s0,.29.02.4l-.05.1c-.08.09-.19.15-.32.19-.14.03-.28.05-.42.05-.33,0-.57-.08-.73-.24-.16-.16-.24-.33-.24-.53,0-.22.08-.45.24-.71.16-.26.35-.5.58-.71.27-.26.66-.49,1.17-.7.5-.2,1.13-.31,1.88-.31,1.14,0,2.01.27,2.6.81.59.54.88,1.3.88,2.29,0,.55-.08,1.05-.23,1.5-.15.44-.37.86-.65,1.25-.28.39-.61.77-1,1.14-.38.37-.8.76-1.26,1.18-.49.45-1,.9-1.54,1.35-.54.45-1.07.88-1.59,1.3l2.02-.07h3.52c.04-.14.1-.31.18-.54.07-.22.14-.44.21-.65.07-.21.13-.39.18-.54.05-.15.08-.23.09-.23Z"/>
      <path class="cls-1" d="m184.51,172.57c.25.09.52.21.8.35s.54.32.78.54c.24.22.44.49.6.82.16.32.24.71.24,1.17s-.08.91-.25,1.33-.43.79-.77,1.1-.78.57-1.29.77c-.52.19-1.12.29-1.81.29-.6,0-1.16-.07-1.67-.22s-.95-.36-1.33-.65-.67-.63-.88-1.04c-.22-.41-.32-.87-.32-1.39,0-.76.21-1.38.64-1.88s.97-.9,1.64-1.22c-.19-.09-.39-.21-.59-.35-.2-.14-.39-.31-.56-.52s-.31-.44-.42-.72c-.11-.28-.17-.6-.17-.98,0-.49.09-.93.27-1.32.18-.39.44-.73.77-1.01.33-.28.74-.5,1.21-.66.47-.15.99-.23,1.55-.23s1.09.08,1.53.23c.44.15.81.37,1.11.65.3.28.53.61.68.99.15.38.23.8.23,1.25,0,.65-.16,1.18-.48,1.62-.32.43-.82.79-1.49,1.09Zm-4.64,3.08c0,.44.08.81.25,1.11.16.3.38.55.65.74.27.19.57.33.92.42s.7.13,1.06.13c.44,0,.84-.06,1.21-.18.36-.12.67-.28.92-.49.25-.2.44-.45.58-.74.14-.29.2-.6.2-.94s-.07-.63-.21-.88c-.14-.24-.32-.45-.54-.61-.22-.16-.45-.3-.7-.4-.25-.1-.48-.19-.68-.27l-1.73-.63c-.6.26-1.07.62-1.41,1.08s-.51,1.01-.51,1.66Zm.48-5.97c0,.51.18.94.54,1.3.36.36.8.63,1.32.81l1.43.49c.32-.18.58-.38.79-.59s.38-.42.5-.64c.12-.22.21-.43.25-.64s.07-.41.07-.59c0-.7-.23-1.25-.68-1.63-.45-.38-1.03-.58-1.73-.58-.39,0-.73.06-1.04.17s-.57.26-.78.45c-.21.19-.38.41-.49.65s-.17.51-.17.78Z"/>
    </g>
  </g>
  <g id="_금" data-name="금">
    <g class="cls-6">
      <path class="cls-3" d="m228.35,8.27c.06.1.09.25.09.46s-.03.35-.09.46h-13.01c-.14,0-.3.02-.49.05-.19.03-.37.06-.55.09-.18.03-.34.06-.48.1-.14.03-.23.05-.28.05-.1,0-.25-.03-.46-.08-.2-.06-.41-.13-.64-.21-.22-.08-.44-.17-.65-.25s-.36-.15-.45-.2c0-.19.02-.35.07-.49.04-.13.12-.2.22-.2.19,0,.62.03,1.28.09.67.06,1.47.1,2.42.1h7.71c.11-.38.22-.79.31-1.25.09-.45.18-.91.26-1.38s.14-.93.19-1.38c.05-.45.09-.86.11-1.23h-6.25c-.41,0-.73.04-.97.12-.24.08-.46.12-.66.12-.13,0-.3-.03-.51-.09s-.43-.13-.66-.21-.42-.15-.58-.23c-.17-.08-.27-.13-.3-.15,0-.04,0-.1,0-.17,0-.08.02-.15.04-.23s.04-.14.08-.19c.03-.05.07-.08.12-.08.06,0,.22,0,.46.03s.54.04.86.06c.33.02.68.04,1.05.05s.73.02,1.05.02h4.84c.29,0,.57-.03.85-.09.27-.06.46-.09.56-.09.2,0,.44.02.7.06s.45.07.55.1c.09.03.15.09.19.19.04.1.06.18.06.23-.04.44-.09.93-.17,1.46-.08.53-.17,1.06-.29,1.59-.11.53-.24,1.03-.38,1.51s-.29.89-.46,1.24h.8c.18,0,.37-.02.57-.05.2-.03.4-.06.6-.09.2-.03.38-.06.54-.1.16-.03.3-.05.4-.05.29,0,.57.03.83.08.26.06.42.14.48.24Zm-3.34,9.01s.04.05.05.1c0,.06,0,.12,0,.2-.01.08-.03.16-.04.24s-.03.15-.04.2h-8.09c-.04.11-.08.22-.12.32s-.11.2-.2.29h-.51c-.08-.15-.15-.34-.21-.55-.06-.22-.11-.54-.13-.97l-.21-3.93s-.04-.1-.12-.14c-.08-.04-.16-.08-.25-.11-.09-.03-.18-.06-.28-.1-.1-.03-.16-.07-.2-.1.01-.04.03-.1.06-.18.03-.08.05-.16.08-.24s.06-.14.09-.2.06-.09.09-.09h7.73c.17,0,.31-.02.43-.07.12-.04.22-.07.31-.07.14,0,.3,0,.47.02s.32.03.42.06c.08.01.15.07.24.16.08.1.12.19.1.29l-.36,4.45-.02.19.7.23Zm-1.75-4.39h-6.42l.02,4.22h6.35l.06-4.22Z"/>
    </g>
  </g>
  <g id="_1" data-name=" 1">
    <g class="cls-6">
      <path class="cls-3" d="m219.88,48.86c.14.03.27.06.39.08s.22.05.3.08.12.04.12.05c0,.07,0,.14-.01.23,0,.09-.03.17-.07.24h-3.26c-.03-.07-.04-.17-.05-.29,0-.12.01-.2.05-.25,0,0,.05-.03.13-.05.08-.02.17-.05.26-.07.09-.02.19-.05.28-.07.09-.02.16-.04.21-.05.16-.03.24-.08.25-.17,0-.09.02-.21.02-.34,0-.14,0-.27,0-.41v-6.14c0-.19,0-.35,0-.49,0-.14.01-.26.02-.36l-1.44.07c-.04-.07-.06-.16-.07-.29,0-.13,0-.23.01-.32.09-.04.24-.08.45-.14s.42-.11.64-.17c.22-.06.44-.11.64-.15.2-.05.35-.08.44-.1l.28.1v8.92c.12.02.25.04.39.07Z"/>
    </g>
  </g>
  <g id="_8" data-name=" 8">
    <g class="cls-6">
      <path class="cls-3" d="m221.64,77.57c.25.09.52.21.8.35s.54.32.78.54c.24.22.44.49.6.82.16.32.24.71.24,1.17s-.08.91-.25,1.33-.43.79-.77,1.1-.78.57-1.29.77c-.52.19-1.12.29-1.81.29-.6,0-1.16-.07-1.67-.22s-.95-.36-1.33-.65-.67-.63-.88-1.04c-.22-.41-.32-.87-.32-1.39,0-.76.21-1.38.64-1.88s.97-.9,1.64-1.22c-.19-.09-.39-.21-.59-.35-.2-.14-.39-.31-.56-.52s-.31-.44-.42-.72c-.11-.28-.17-.6-.17-.98,0-.49.09-.93.27-1.32.18-.39.44-.73.77-1.01.33-.28.74-.5,1.21-.66.47-.15.99-.23,1.55-.23s1.09.08,1.53.23c.44.15.81.37,1.11.65.3.28.53.61.68.99.15.38.23.8.23,1.25,0,.65-.16,1.18-.48,1.62-.32.43-.82.79-1.49,1.09Zm-4.64,3.08c0,.44.08.81.25,1.11.16.3.38.55.65.74.27.19.57.33.92.42s.7.13,1.06.13c.44,0,.84-.06,1.21-.18.36-.12.67-.28.92-.49.25-.2.44-.45.58-.74.14-.29.2-.6.2-.94s-.07-.63-.21-.88c-.14-.24-.32-.45-.54-.61-.22-.16-.45-.3-.7-.4-.25-.1-.48-.19-.68-.27l-1.73-.63c-.6.26-1.07.62-1.41,1.08s-.51,1.01-.51,1.66Zm.48-5.97c0,.51.18.94.54,1.3.36.36.8.63,1.32.81l1.43.49c.32-.18.58-.38.79-.59s.38-.42.5-.64c.12-.22.21-.43.25-.64s.07-.41.07-.59c0-.7-.23-1.25-.68-1.63-.45-.38-1.03-.58-1.73-.58-.39,0-.73.06-1.04.17s-.57.26-.78.45c-.21.19-.38.41-.49.65s-.17.51-.17.78Z"/>
    </g>
  </g>
  <g id="_15" data-name=" 15">
    <g class="cls-6">
      <path class="cls-3" d="m215.5,113.82c.16.03.31.06.45.1s.25.06.34.09c.09.03.14.05.14.06,0,.07,0,.16-.02.26-.01.1-.04.19-.08.28h-3.73c-.03-.09-.05-.2-.06-.33,0-.13.01-.23.06-.28.01-.01.06-.03.15-.06.09-.03.19-.05.3-.08s.21-.05.32-.08c.11-.03.19-.05.24-.06.18-.03.28-.1.29-.19,0-.11.02-.24.02-.39,0-.15,0-.31,0-.46v-7.02c0-.21,0-.4,0-.56,0-.16.01-.3.02-.42l-1.65.08c-.04-.07-.07-.18-.08-.33-.01-.14,0-.26.02-.36.11-.04.28-.1.51-.16.23-.06.48-.13.74-.19.26-.06.5-.12.73-.18.23-.05.4-.09.5-.11l.32.11v10.19c.14.02.29.05.45.08Z"/>
      <path class="cls-3" d="m223.96,108.54c.41.25.74.58,1.02,1.01.27.43.41.99.41,1.7,0,1.18-.38,2.09-1.14,2.71-.76.62-1.8.94-3.12.94-.34,0-.71-.03-1.1-.08-.39-.05-.76-.17-1.11-.35-.12-.06-.24-.14-.37-.22-.13-.09-.25-.18-.35-.29-.11-.11-.19-.23-.26-.36-.07-.13-.1-.28-.1-.44,0-.09.01-.18.04-.28.03-.1.08-.19.14-.28.07-.08.16-.15.27-.21.11-.05.25-.08.42-.08.12,0,.24.02.37.05.13.03.23.08.32.14l.02.06c-.02.21.01.45.1.7.09.25.19.42.31.52.1.08.29.16.58.22.29.06.61.1.96.1.9,0,1.59-.25,2.09-.74.5-.5.74-1.14.74-1.94,0-.32-.04-.63-.14-.92-.09-.29-.24-.55-.45-.78-.21-.23-.49-.41-.83-.55-.35-.14-.77-.21-1.27-.21-.12,0-.27,0-.46.02s-.38.02-.59.04c-.21.02-.42.04-.62.06-.21.02-.38.05-.52.08h-.46v-5.41h6.16s.05.08.05.13c0,.14-.02.29-.07.45-.05.16-.11.32-.18.48h-3.06l-2.02-.05v2.3l-.05,1.25c.14-.04.3-.08.49-.11.19-.03.38-.06.58-.09.2-.03.39-.05.59-.06.2-.02.38-.02.55-.02.49,0,.91.06,1.26.18.35.12.62.24.81.36Z"/>
    </g>
  </g>
  <g id="_22" data-name=" 22">
    <g class="cls-6">
      <path class="cls-3" d="m218.55,142.7c.1,0,.2.02.32.06.12.04.21.08.29.12l-.18,2.8c-.14,0-.28,0-.41-.02-.13-.02-.27-.04-.41-.06h-6.75v-1.01c.39-.31.75-.6,1.08-.87.32-.27.63-.53.92-.78.29-.25.56-.49.82-.72.26-.24.51-.47.77-.72.33-.31.64-.61.94-.9s.55-.58.77-.88.39-.61.52-.94c.13-.33.19-.7.19-1.1,0-.78-.2-1.38-.59-1.79-.4-.42-1.04-.62-1.94-.62-.36,0-.66.03-.88.1-.22.07-.39.15-.51.23-.03.07-.06.18-.09.3-.03.13-.05.26-.06.41-.01.14-.02.29-.02.43s0,.27.02.38l-.05.1c-.08.09-.18.14-.3.18-.13.03-.26.05-.4.05-.31,0-.54-.08-.69-.22-.15-.15-.22-.31-.22-.5,0-.2.07-.43.22-.67.15-.25.33-.47.54-.67.26-.25.62-.46,1.1-.66.47-.19,1.06-.29,1.77-.29,1.08,0,1.89.25,2.45.76s.83,1.22.83,2.15c0,.52-.07.99-.22,1.41s-.35.81-.61,1.18c-.26.37-.57.73-.94,1.07-.36.35-.76.72-1.18,1.11-.46.43-.94.85-1.45,1.27-.51.42-1,.83-1.5,1.22l1.9-.06h3.31c.04-.13.1-.3.17-.5s.14-.41.2-.61c.06-.2.12-.37.17-.51.05-.14.08-.22.09-.22Z"/>
      <path class="cls-3" d="m227.7,142.7c.1,0,.2.02.32.06.12.04.21.08.29.12l-.18,2.8c-.14,0-.27,0-.41-.02s-.27-.04-.41-.06h-6.75v-1.01c.39-.31.75-.6,1.08-.87.33-.27.63-.53.92-.78s.56-.49.82-.72c.26-.24.51-.47.77-.72.33-.31.64-.61.94-.9.29-.29.55-.58.77-.88s.39-.61.52-.94c.13-.33.19-.7.19-1.1,0-.78-.2-1.38-.59-1.79-.4-.42-1.04-.62-1.94-.62-.36,0-.66.03-.88.1-.22.07-.4.15-.51.23-.03.07-.06.18-.09.3s-.05.26-.06.41c-.01.14-.02.29-.02.43s0,.27.02.38l-.05.1c-.07.09-.18.14-.3.18-.13.03-.26.05-.4.05-.31,0-.54-.08-.69-.22-.15-.15-.22-.31-.22-.5,0-.2.07-.43.22-.67.15-.25.33-.47.54-.67.26-.25.62-.46,1.1-.66.47-.19,1.06-.29,1.77-.29,1.08,0,1.89.25,2.45.76s.83,1.22.83,2.15c0,.52-.07.99-.22,1.41-.14.42-.35.81-.61,1.18-.26.37-.57.73-.94,1.07-.36.35-.76.72-1.18,1.11-.46.43-.94.85-1.45,1.27-.51.42-1.01.83-1.5,1.22l1.9-.06h3.31c.04-.13.1-.3.17-.5.07-.21.13-.41.2-.61s.12-.37.17-.51c.05-.14.08-.22.09-.22Z"/>
    </g>
  </g>
  <g id="_29" data-name=" 29">
    <g class="cls-6">
      <path class="cls-1" d="m218.61,174.7c.1,0,.2.02.32.06.12.04.21.08.29.12l-.18,2.8c-.14,0-.27,0-.41-.02s-.27-.04-.41-.06h-6.75v-1.01c.39-.31.75-.6,1.08-.87.33-.27.63-.53.92-.78s.56-.49.82-.72c.26-.24.51-.47.77-.72.33-.31.64-.61.94-.9.29-.29.55-.58.77-.88s.39-.61.52-.94c.13-.33.19-.7.19-1.1,0-.78-.2-1.38-.59-1.79-.4-.42-1.04-.62-1.94-.62-.36,0-.66.03-.88.1-.22.07-.4.15-.51.23-.03.07-.06.18-.09.3s-.05.26-.06.41c-.01.14-.02.29-.02.43s0,.27.02.38l-.05.1c-.07.09-.18.14-.3.18-.13.03-.26.05-.4.05-.31,0-.54-.08-.69-.22-.15-.15-.22-.31-.22-.5,0-.2.07-.43.22-.67.15-.25.33-.47.54-.67.26-.25.62-.46,1.1-.66.47-.19,1.06-.29,1.77-.29,1.08,0,1.89.25,2.45.76s.83,1.22.83,2.15c0,.52-.07.99-.22,1.41-.14.42-.35.81-.61,1.18-.26.37-.57.73-.94,1.07-.36.35-.76.72-1.18,1.11-.46.43-.94.85-1.45,1.27-.51.42-1.01.83-1.5,1.22l1.9-.06h3.31c.04-.13.1-.3.17-.5.07-.21.13-.41.2-.61s.12-.37.17-.51c.05-.14.08-.22.09-.22Z"/>
      <path class="cls-1" d="m224.57,166.43c.62,0,1.15.1,1.6.31.45.21.82.5,1.11.89.29.38.51.85.66,1.39s.22,1.16.22,1.84c0,1.06-.14,2-.42,2.82-.28.83-.69,1.54-1.21,2.13-.52.59-1.16,1.06-1.9,1.41-.75.35-1.58.57-2.51.66l-.42-.8c.44-.04.88-.12,1.33-.22.45-.11.9-.3,1.34-.58.3-.18.59-.41.86-.67.28-.27.53-.58.77-.94.23-.36.43-.78.59-1.25.16-.47.27-1,.32-1.6-.11.14-.22.28-.33.42-.11.14-.21.24-.3.3-.1.08-.23.16-.4.26-.17.1-.38.19-.62.28-.24.09-.51.16-.81.22-.3.06-.62.1-.98.1s-.71-.06-1.06-.19c-.34-.13-.65-.32-.91-.58-.27-.26-.48-.59-.64-.98s-.24-.85-.24-1.38.09-1.05.27-1.52c.18-.47.44-.88.78-1.22s.75-.62,1.24-.81c.48-.19,1.03-.29,1.64-.29Zm-2.74,3.55c0,.75.2,1.34.6,1.77.4.43.98.65,1.75.65.48,0,.94-.09,1.38-.27.44-.18.9-.44,1.38-.77,0-.07.02-.14.02-.21v-.21c0-.41-.04-.82-.12-1.26-.08-.43-.22-.82-.42-1.18-.2-.35-.46-.64-.79-.86-.33-.22-.75-.34-1.26-.34-.32,0-.63.05-.94.15-.3.1-.57.26-.81.47-.23.21-.42.49-.57.82-.14.34-.21.74-.21,1.22Z"/>
    </g>
  </g>
  <g id="_토" data-name="토">
    <g class="cls-6">
      <path class="cls-2" d="m269.35,14.54c.06.1.09.25.09.46s-.03.35-.09.46h-13.01c-.14,0-.3.02-.49.05-.19.03-.37.06-.55.09-.18.03-.34.06-.48.09s-.23.05-.28.05c-.1,0-.25-.03-.46-.09-.2-.06-.41-.13-.64-.21-.22-.08-.44-.17-.65-.25s-.36-.15-.45-.2c0-.19.02-.35.07-.48s.12-.2.22-.2c.19,0,.62.03,1.28.09s1.47.09,2.42.09h3.97c-.01-.21-.02-.46-.03-.72,0-.27,0-.49,0-.68v-2.13h-2.55c-.58,0-1.03-.13-1.34-.39-.31-.26-.46-.65-.46-1.17l-.04-5.57c0-.15-.06-.29-.19-.42-.03-.03-.11-.08-.25-.15-.14-.08-.3-.15-.48-.23-.01-.13.02-.27.08-.44.07-.17.15-.25.24-.25.08,0,.2,0,.36.02.16.01.34.03.53.04s.37.03.55.05c.18.02.32.04.42.05h6.31c.11,0,.21-.02.3-.05s.18-.06.27-.1c.09-.03.18-.06.28-.09.1-.03.22-.05.36-.05s.34,0,.62.02.48.04.62.08c.09.03.15.09.19.2s.05.22.04.34c-.01.12-.04.24-.09.36s-.12.2-.21.24h-8.63v2.85h6.04c.25,0,.46-.04.64-.11.17-.08.34-.11.52-.11h.72c.23,0,.39.02.49.06.08.03.13.09.17.18.04.1.05.2.05.3,0,.11-.04.21-.09.31s-.12.18-.21.23h-8.34v2.22c0,.24.07.4.2.49.13.08.29.12.48.12h5.74c.14,0,.26-.01.36-.04s.2-.05.29-.08c.09-.03.18-.06.27-.09.09-.03.19-.04.3-.04h.28c.12,0,.24,0,.37.02.13.01.25.03.36.04.11.01.21.03.29.04.09.03.15.09.19.19.04.1.05.21.05.32,0,.11-.03.22-.07.33-.04.11-.08.19-.13.24h-.45c-.18,0-.39,0-.62,0-.23,0-.47,0-.72,0h-2.75l-.02,1.84c0,.09,0,.2,0,.34,0,.14-.02.29-.03.46-.01.17-.03.33-.05.48-.02.16-.04.3-.05.43h4.45c.18,0,.37-.02.57-.05.2-.03.4-.06.6-.09.2-.03.38-.06.54-.09s.3-.05.4-.05c.29,0,.57.03.83.09.26.06.42.14.48.24Z"/>
    </g>
  </g>
  <g id="_2" data-name=" 2">
    <g class="cls-6">
      <path class="cls-2" d="m264.33,48.55c.1,0,.21.02.34.06.12.04.23.08.31.13l-.19,2.97c-.15,0-.29,0-.43-.03-.14-.02-.29-.04-.43-.06h-7.17v-1.07c.42-.33.8-.64,1.15-.93s.67-.56.98-.83c.31-.26.59-.51.87-.76.27-.25.54-.5.82-.76.35-.33.68-.65,1-.95.31-.31.58-.62.82-.94.23-.32.42-.65.55-1,.14-.35.21-.74.21-1.17,0-.83-.21-1.46-.63-1.9-.42-.44-1.11-.66-2.06-.66-.39,0-.7.04-.93.11-.24.07-.42.16-.54.25-.03.08-.06.19-.09.32s-.05.28-.06.43-.02.31-.02.46,0,.29.02.4l-.05.1c-.08.09-.19.15-.32.19s-.28.05-.42.05c-.33,0-.57-.08-.73-.24-.16-.16-.24-.33-.24-.53,0-.22.08-.45.24-.71.16-.26.35-.5.58-.71.27-.26.66-.49,1.17-.7.5-.2,1.13-.31,1.88-.31,1.14,0,2.01.27,2.6.81.59.54.88,1.3.88,2.29,0,.55-.08,1.05-.23,1.5-.15.44-.37.86-.65,1.25-.28.39-.61.77-1,1.14-.39.37-.8.76-1.26,1.18-.49.45-1,.9-1.54,1.35-.54.45-1.07.88-1.59,1.3l2.02-.07h3.52c.05-.14.11-.31.18-.54.07-.22.14-.44.21-.65.07-.21.13-.39.18-.54.05-.15.08-.23.09-.23Z"/>
    </g>
  </g>
  <g id="_9" data-name=" 9">
    <g class="cls-6">
      <path class="cls-2" d="m261,71.76c.66,0,1.22.11,1.7.33.48.22.87.54,1.18.94s.54.9.7,1.48c.15.58.23,1.23.23,1.95,0,1.12-.15,2.12-.45,3-.3.88-.73,1.63-1.28,2.26-.56.63-1.23,1.13-2.02,1.5s-1.68.6-2.67.71l-.44-.85c.46-.04.94-.12,1.41-.24.48-.11.95-.32,1.43-.61.32-.19.62-.43.92-.71.29-.28.57-.62.82-1,.25-.39.46-.83.63-1.33s.28-1.07.34-1.7c-.11.15-.23.29-.35.44-.12.15-.22.25-.31.32-.1.08-.24.17-.42.28-.18.11-.4.21-.65.3s-.54.17-.86.24c-.32.07-.66.1-1.04.1s-.76-.07-1.12-.2c-.36-.14-.69-.34-.97-.62-.28-.28-.51-.62-.68-1.04-.17-.41-.25-.9-.25-1.47s.1-1.12.29-1.61c.19-.5.47-.93.83-1.3s.8-.65,1.32-.86,1.1-.31,1.74-.31Zm-2.91,3.77c0,.79.21,1.42.64,1.88.42.46,1.04.69,1.86.69.51,0,1-.1,1.46-.29.46-.19.95-.46,1.46-.82.01-.08.02-.15.02-.22v-.22c0-.43-.04-.88-.13-1.33-.08-.46-.23-.88-.44-1.25-.21-.37-.49-.68-.84-.92-.35-.24-.8-.36-1.34-.36-.34,0-.67.05-.99.16-.32.11-.61.28-.86.5-.25.23-.45.52-.6.88-.15.36-.23.79-.23,1.3Z"/>
    </g>
  </g>
  <g id="_16" data-name=" 16">
    <g class="cls-6">
      <path class="cls-2" d="m257.51,113.82c.16.03.31.06.45.1s.25.06.34.09c.09.03.14.05.14.06,0,.07,0,.16-.02.26s-.04.19-.08.28h-3.73c-.03-.09-.05-.2-.06-.33,0-.13.01-.23.06-.28.01-.01.06-.03.15-.06s.19-.05.3-.08.21-.05.32-.08.19-.05.24-.06c.18-.03.28-.1.29-.19,0-.11.02-.24.02-.39,0-.15,0-.31,0-.46v-7.02c0-.21,0-.4,0-.56,0-.16.01-.3.02-.42l-1.65.08c-.04-.07-.07-.18-.08-.33-.01-.14,0-.26.02-.36.11-.04.28-.1.51-.16.23-.06.48-.13.74-.19.26-.06.5-.12.73-.18.23-.05.4-.09.5-.11l.32.11v10.19c.14.02.29.05.45.08Z"/>
      <path class="cls-2" d="m264.57,107.94c.45,0,.85.08,1.22.23.36.16.67.37.93.66.26.28.45.63.59,1.03s.21.85.21,1.34c0,.53-.08,1.03-.23,1.48s-.39.84-.7,1.17-.7.58-1.17.76c-.47.18-1.01.27-1.63.27-1.19,0-2.12-.36-2.79-1.09-.67-.72-1-1.88-1-3.46,0-.86.1-1.63.29-2.31.19-.68.45-1.27.77-1.78.32-.51.69-.95,1.11-1.3.42-.36.86-.65,1.33-.87s.93-.39,1.39-.49c.46-.1.9-.15,1.32-.15l.24.82c-.47.03-.91.09-1.33.18-.42.09-.83.26-1.23.51-.31.19-.61.43-.9.71-.29.28-.56.62-.81,1-.25.38-.45.82-.62,1.31-.17.49-.28,1.04-.33,1.63.11-.15.22-.29.34-.42.12-.13.22-.24.3-.31.06-.05.18-.13.34-.23s.36-.2.59-.3c.24-.1.5-.19.81-.26.3-.08.63-.11.97-.11Zm-3.38,2.38c0,.54.06,1.04.17,1.49s.29.83.52,1.16c.23.33.53.58.88.76.35.18.77.27,1.25.27.68,0,1.24-.2,1.67-.6.43-.4.65-1.03.65-1.9,0-.36-.04-.7-.13-1.02-.08-.31-.22-.59-.41-.82s-.42-.41-.71-.54-.64-.19-1.06-.19c-.5,0-.98.09-1.43.27-.45.18-.92.44-1.4.77v.34Z"/>
    </g>
  </g>
  <g id="_23" data-name=" 23" class="cls-6">
    <g class="cls-6">
      <path class="cls-5" d="m259.64,142.7c.1,0,.2.02.32.06.12.04.21.08.29.12l-.18,2.8c-.14,0-.28,0-.41-.02-.13-.02-.27-.04-.41-.06h-6.75v-1.01c.39-.31.75-.6,1.08-.87.32-.27.63-.53.92-.78.29-.25.56-.49.82-.72.26-.24.51-.47.77-.72.33-.31.64-.61.94-.9s.55-.58.77-.88.39-.61.52-.94c.13-.33.19-.7.19-1.1,0-.78-.2-1.38-.59-1.79-.4-.42-1.04-.62-1.94-.62-.36,0-.66.03-.88.1-.22.07-.39.15-.51.23-.03.07-.06.18-.09.3-.03.13-.05.26-.06.41-.01.14-.02.29-.02.43s0,.27.02.38l-.05.1c-.08.09-.18.14-.3.18-.13.03-.26.05-.4.05-.31,0-.54-.08-.69-.22-.15-.15-.22-.31-.22-.5,0-.2.07-.43.22-.67.15-.25.33-.47.54-.67.26-.25.62-.46,1.1-.66.47-.19,1.06-.29,1.77-.29,1.08,0,1.89.25,2.45.76s.83,1.22.83,2.15c0,.52-.07.99-.22,1.41s-.35.81-.61,1.18c-.26.37-.57.73-.94,1.07-.36.35-.76.72-1.18,1.11-.46.43-.94.85-1.45,1.27-.51.42-1,.83-1.5,1.22l1.9-.06h3.31c.04-.13.1-.3.17-.5s.14-.41.2-.61c.06-.2.12-.37.17-.51.05-.14.08-.22.09-.22Z"/>
      <path class="cls-5" d="m267.86,139.95c.38.21.7.52.94.91.24.39.36.9.36,1.5,0,.51-.09.98-.26,1.42-.18.43-.44.8-.79,1.11-.35.31-.79.55-1.32.73-.53.18-1.14.26-1.85.26-.33,0-.69-.03-1.07-.08-.38-.05-.75-.17-1.1-.35-.12-.06-.24-.14-.37-.22-.13-.09-.25-.18-.35-.29-.11-.11-.19-.23-.26-.36-.07-.13-.1-.28-.1-.44,0-.09.01-.18.04-.28.03-.1.08-.19.14-.28.07-.08.16-.15.27-.21.11-.05.25-.08.42-.08.12,0,.24.02.37.05.13.03.23.08.32.14l.02.06c-.02.21.01.45.1.7.09.25.19.42.31.52.08.07.27.15.54.22s.6.1.96.1c.44,0,.83-.06,1.18-.19.35-.13.64-.3.88-.53.24-.22.42-.49.55-.78.13-.3.19-.61.19-.94,0-.29-.04-.57-.13-.86-.09-.28-.23-.54-.42-.76-.2-.22-.46-.41-.78-.54s-.71-.21-1.17-.21c-.08,0-.19,0-.3,0-.12,0-.24.01-.37.02-.13,0-.25.01-.37.02-.12,0-.21.01-.27.02l-.1-.13c.05-.14.13-.28.22-.42.09-.14.19-.26.3-.34.18,0,.4-.01.66-.04.26-.03.5-.07.72-.12.43-.12.78-.35,1.07-.7s.43-.81.43-1.4-.19-1.06-.56-1.4-.97-.5-1.79-.5c-.37,0-.68.04-.93.12-.25.08-.42.16-.51.25-.03.05-.06.14-.08.25-.02.11-.04.23-.05.36,0,.13-.02.26-.02.4s0,.26.02.35l-.05.1c-.08.08-.18.14-.32.16s-.25.03-.34.03c-.31,0-.53-.07-.66-.22-.13-.15-.2-.3-.2-.45,0-.18.07-.38.22-.61.15-.22.33-.43.54-.62.27-.25.63-.47,1.09-.66.46-.2,1.05-.3,1.78-.3.97,0,1.71.22,2.22.65s.76,1.06.76,1.9c0,.51-.08.93-.23,1.25-.15.32-.37.59-.65.8-.25.21-.57.39-.96.54.37.06.75.19,1.12.38Z"/>
    </g>
  </g>
  <g id="_30" data-name=" 30">
    <g class="cls-6">
      <path class="cls-1" d="m257.98,172.62c.41.23.74.55,1,.97.25.42.38.95.38,1.6,0,.54-.09,1.04-.28,1.5s-.47.85-.84,1.18c-.37.33-.84.59-1.4.77-.56.19-1.22.28-1.96.28-.35,0-.73-.03-1.14-.08-.41-.06-.8-.18-1.17-.37-.12-.07-.25-.15-.39-.24-.14-.09-.26-.19-.37-.31-.11-.11-.21-.24-.28-.38-.07-.14-.11-.3-.11-.47,0-.09.01-.19.04-.3.03-.11.08-.21.15-.3.07-.09.17-.16.29-.22.12-.06.27-.08.45-.08.12,0,.25.02.39.05.14.03.25.08.34.15l.02.07c-.02.23.01.47.11.74.1.27.21.45.33.55.09.08.28.16.58.23.29.07.63.11,1.02.11.46,0,.88-.07,1.25-.2.37-.14.68-.32.94-.56.25-.24.45-.52.59-.83s.2-.65.2-1c0-.31-.04-.61-.14-.91-.09-.3-.24-.57-.45-.81-.21-.24-.48-.43-.82-.58s-.75-.22-1.24-.22c-.09,0-.2,0-.32,0-.12,0-.25.01-.39.02-.14,0-.27.01-.39.02-.12,0-.22.01-.29.03l-.1-.14c.06-.15.13-.3.23-.45.1-.15.2-.27.31-.37.19,0,.42-.01.7-.04.27-.03.53-.07.77-.13.45-.12.83-.37,1.14-.74s.46-.86.46-1.49-.2-1.13-.59-1.49c-.4-.36-1.03-.54-1.9-.54-.4,0-.73.04-.99.13s-.44.17-.54.26c-.03.06-.06.14-.08.26s-.04.25-.05.38c-.01.14-.02.28-.02.42s0,.27.02.37l-.05.1c-.08.09-.19.15-.34.17-.15.02-.27.03-.36.03-.33,0-.56-.08-.71-.24-.14-.16-.21-.32-.21-.48,0-.19.08-.41.24-.65.16-.24.35-.46.58-.66.28-.26.67-.5,1.16-.71.49-.21,1.12-.31,1.89-.31,1.03,0,1.82.23,2.35.69.54.46.81,1.13.81,2.01,0,.54-.08.99-.25,1.33s-.39.62-.69.85c-.26.23-.6.42-1.02.58.4.07.79.2,1.19.41Z"/>
      <path class="cls-1" d="m265.68,178.93c-.7,0-1.33-.14-1.9-.43-.56-.29-1.04-.7-1.43-1.22-.39-.53-.69-1.17-.9-1.92-.21-.75-.31-1.59-.31-2.51s.1-1.75.31-2.51c.21-.75.51-1.39.9-1.92.39-.53.87-.94,1.43-1.22.56-.29,1.19-.43,1.9-.43s1.32.14,1.88.43c.56.29,1.03.7,1.42,1.22.38.53.68,1.17.89,1.92.21.75.31,1.59.31,2.51s-.11,1.75-.31,2.51c-.21.75-.51,1.39-.89,1.92-.39.53-.86.94-1.42,1.22-.56.29-1.19.43-1.88.43Zm-3.26-6.09c0,.81.08,1.52.23,2.15.15.63.37,1.16.66,1.6.28.44.63.77,1.03,1,.4.23.85.35,1.33.35s.95-.12,1.35-.35.74-.57,1.02-1.01c.28-.44.49-.98.65-1.61s.23-1.34.23-2.13-.08-1.5-.23-2.13-.37-1.17-.65-1.61c-.28-.44-.62-.78-1.02-1.01s-.85-.35-1.35-.35-.93.12-1.33.35c-.4.23-.75.57-1.03,1-.28.44-.5.97-.66,1.61-.15.63-.23,1.35-.23,2.14Z"/>
    </g>
  </g>
</svg>